<svg width="150" height="50" viewBox="0 0 150 50" fill="none" xmlns="http://www.w3.org/2000/svg">
<rect width="150" height="50" rx="20" fill="url(#paint0_linear)"/>
<path d="M17.8899 32H20.6576V27.3594H22.6775L25.1576 32H28.213L25.4325 26.9119C26.9218 26.2727 27.7464 24.9751 27.7464 23.1854C27.7464 20.5838 26.027 18.9091 23.0547 18.9091H17.8899V32ZM20.6576 25.1349V21.1719H22.5241C24.1221 21.1719 24.8956 21.8814 24.8956 23.1854C24.8956 24.483 24.1221 25.1349 22.5369 25.1349H20.6576ZM33.9675 32.1918C36.3964 32.1918 38.0328 31.0092 38.4163 29.1875L35.8979 29.0213C35.623 29.7692 34.9199 30.1591 34.0122 30.1591C32.6507 30.1591 31.7878 29.2578 31.7878 27.794V27.7876H38.4739V27.0398C38.4739 23.7031 36.454 22.054 33.8588 22.054C30.9696 22.054 29.0967 24.1058 29.0967 27.1357C29.0967 30.2486 30.944 32.1918 33.9675 32.1918ZM31.7878 26.1001C31.8453 24.9815 32.6955 24.0866 33.9036 24.0866C35.0861 24.0866 35.9043 24.9304 35.9107 26.1001H31.7878ZM43.0506 32.1854C44.5016 32.1854 45.4412 31.5526 45.9206 30.6385H45.9973V32H48.5797V25.3778C48.5797 23.0384 46.5982 22.054 44.4121 22.054C42.0598 22.054 40.5129 23.179 40.1358 24.9688L42.6543 25.1733C42.8396 24.5213 43.4213 24.0419 44.3993 24.0419C45.3261 24.0419 45.8567 24.5085 45.8567 25.3139V25.3523C45.8567 25.9851 45.1855 26.0682 43.4788 26.2344C41.5357 26.4134 39.7906 27.0653 39.7906 29.2578C39.7906 31.201 41.1777 32.1854 43.0506 32.1854ZM43.8304 30.3061C42.993 30.3061 42.3922 29.9162 42.3922 29.1683C42.3922 28.4013 43.025 28.0241 43.9838 27.8899C44.5783 27.8068 45.5499 27.6662 45.8759 27.4489V28.4908C45.8759 29.5199 45.0257 30.3061 43.8304 30.3061ZM54.3102 32.1598C55.8954 32.1598 56.72 31.2457 57.0971 30.4276H57.2121V32H59.8968V18.9091H57.1802V23.831H57.0971C56.7327 23.032 55.9465 22.054 54.3038 22.054C52.1496 22.054 50.3279 23.7287 50.3279 27.1037C50.3279 30.3892 52.0729 32.1598 54.3102 32.1598ZM55.1731 29.9929C53.8371 29.9929 53.1085 28.804 53.1085 27.0909C53.1085 25.3906 53.8244 24.2209 55.1731 24.2209C56.4962 24.2209 57.2377 25.3395 57.2377 27.0909C57.2377 28.8423 56.4835 29.9929 55.1731 29.9929ZM66.3528 18.9091V32H69.0374V23.4474H69.1461L72.5339 31.9361H74.362L77.7498 23.4794H77.8585V32H80.5431V18.9091H77.1298L73.5246 27.7045H73.3712L69.7661 18.9091H66.3528ZM87.2084 32.1918C90.1871 32.1918 92.0408 30.1527 92.0408 27.1293C92.0408 24.0866 90.1871 22.054 87.2084 22.054C84.2297 22.054 82.376 24.0866 82.376 27.1293C82.376 30.1527 84.2297 32.1918 87.2084 32.1918ZM87.2212 30.0824C85.8469 30.0824 85.1438 28.8232 85.1438 27.1101C85.1438 25.397 85.8469 24.1314 87.2212 24.1314C88.5699 24.1314 89.273 25.397 89.273 27.1101C89.273 28.8232 88.5699 30.0824 87.2212 30.0824ZM93.8114 32H96.5344V26.4453C96.5344 25.2372 97.4165 24.4062 98.6182 24.4062C98.9953 24.4062 99.5131 24.4702 99.7688 24.5533V22.1371C99.5259 22.0795 99.1871 22.0412 98.9122 22.0412C97.8128 22.0412 96.9115 22.6804 96.5536 23.8949H96.4513V22.1818H93.8114V32ZM105.194 32.1918C107.623 32.1918 109.259 31.0092 109.643 29.1875L107.124 29.0213C106.85 29.7692 106.146 30.1591 105.239 30.1591C103.877 30.1591 103.014 29.2578 103.014 27.794V27.7876H109.7V27.0398C109.7 23.7031 107.681 22.054 105.085 22.054C102.196 22.054 100.323 24.1058 100.323 27.1357C100.323 30.2486 102.171 32.1918 105.194 32.1918ZM103.014 26.1001C103.072 24.9815 103.922 24.0866 105.13 24.0866C106.313 24.0866 107.131 24.9304 107.137 26.1001H103.014Z" fill="black"/>
<path d="M123.743 30.5L129.243 25L123.743 19.5L124.843 17.3L132.543 25L124.843 32.7L123.743 30.5Z" fill="black"/>
<defs>
<linearGradient id="paint0_linear" x1="0" y1="0" x2="153.065" y2="37.4853" gradientUnits="userSpaceOnUse">
<stop stop-color="white" stop-opacity="0.4"/>
<stop offset="1" stop-color="white" stop-opacity="0.1"/>
</linearGradient>
</defs>
</svg>
