<svg width="150" height="50" viewBox="0 0 150 50" fill="none" xmlns="http://www.w3.org/2000/svg">
<rect x="0.5" y="0.5" width="149" height="49" rx="24.5" stroke="black"/>
<path d="M76.0413 31H84.0441V29.5937H77.6265V25.1449H83.5328V23.7386H77.6265V19.3153H83.9418V17.9091H76.0413V31ZM86.5945 31H88.1031V24.8636C88.1031 23.4254 89.1514 22.4091 90.3275 22.4091C91.4717 22.4091 92.2707 23.1569 92.2707 24.2755V31H93.8048V24.6079C93.8048 23.3423 94.5974 22.4091 95.9781 22.4091C97.0519 22.4091 97.9724 22.978 97.9724 24.4289V31H99.4809V24.4289C99.4809 22.1214 98.2409 21.0539 96.4894 21.0539C95.0832 21.0539 94.0541 21.6995 93.5491 22.7159H93.4468C92.961 21.6676 92.1045 21.0539 90.8133 21.0539C89.5349 21.0539 88.5889 21.6676 88.1798 22.7159H88.0519V21.1818H86.5945V31ZM105.128 31.2301C106.841 31.2301 107.736 30.3096 108.043 29.6704H108.12V31H109.628V24.5312C109.628 21.4119 107.25 21.0539 105.998 21.0539C104.515 21.0539 102.827 21.5653 102.06 23.3551L103.492 23.8664C103.824 23.1505 104.611 22.3835 106.049 22.3835C107.436 22.3835 108.12 23.1186 108.12 24.3778V24.4289C108.12 25.1576 107.378 25.0937 105.589 25.3238C103.767 25.5603 101.779 25.963 101.779 28.213C101.779 30.1307 103.262 31.2301 105.128 31.2301ZM105.358 29.875C104.157 29.875 103.287 29.338 103.287 28.2897C103.287 27.1392 104.336 26.7812 105.512 26.6278C106.151 26.5511 107.864 26.3721 108.12 26.0653V27.446C108.12 28.6733 107.148 29.875 105.358 29.875ZM112.382 31H113.89V21.1818H112.382V31ZM113.149 19.5454C113.737 19.5454 114.223 19.0852 114.223 18.5227C114.223 17.9602 113.737 17.5 113.149 17.5C112.561 17.5 112.075 17.9602 112.075 18.5227C112.075 19.0852 112.561 19.5454 113.149 19.5454ZM118.162 17.9091H116.653V31H118.162V17.9091Z" fill="black"/>
<path d="M60.1111 12.8334H32.8889C32.3732 12.8334 31.8786 13.0383 31.514 13.4029C31.1493 13.7676 30.9444 14.2622 30.9444 14.7778V34.2223C30.9444 34.738 31.1493 35.2326 31.514 35.5972C31.8786 35.9619 32.3732 36.1667 32.8889 36.1667H60.1111C60.6268 36.1667 61.1214 35.9619 61.486 35.5972C61.8507 35.2326 62.0556 34.738 62.0556 34.2223V14.7778C62.0556 14.2622 61.8507 13.7676 61.486 13.4029C61.1214 13.0383 60.6268 12.8334 60.1111 12.8334ZM58.6139 34.2223H34.5028L41.3083 27.1834L39.9083 25.832L32.8889 33.0945V16.2556L44.9736 28.282C45.3379 28.6442 45.8307 28.8474 46.3444 28.8474C46.8581 28.8474 47.351 28.6442 47.7153 28.282L60.1111 15.9542V32.9681L52.9556 25.8126L51.5847 27.1834L58.6139 34.2223ZM34.1625 14.7778H58.5361L46.3444 26.9015L34.1625 14.7778Z" fill="black"/>
</svg>
