<svg width="150" height="50" viewBox="0 0 150 50" fill="none" xmlns="http://www.w3.org/2000/svg">
<rect x="0.5" y="0.5" width="149" height="49" rx="24.5" stroke="black"/>
<path d="M77.5458 24H79.1822C78.6964 21.4687 76.5742 19.7301 73.8129 19.7301C70.457 19.7301 68.0856 22.3125 68.0856 26.4545C68.0856 30.5966 70.4379 33.1789 73.9151 33.1789C77.0344 33.1789 79.2589 31.1015 79.2589 27.8608V26.4545H74.2731V27.8608H77.7248C77.68 30.213 76.1332 31.696 73.9151 31.696C71.4862 31.696 69.6197 29.8551 69.6197 26.4545C69.6197 23.0539 71.4862 21.213 73.8129 21.213C75.7049 21.213 76.9897 22.2805 77.5458 24ZM82.3846 33H83.8931V23.1818H82.3846V33ZM83.1516 21.5454C83.7397 21.5454 84.2255 21.0852 84.2255 20.5227C84.2255 19.9602 83.7397 19.5 83.1516 19.5C82.5636 19.5 82.0778 19.9602 82.0778 20.5227C82.0778 21.0852 82.5636 21.5454 83.1516 21.5454ZM90.926 23.1818H88.8294V20.8295H87.3208V23.1818H85.8379V24.4602H87.3208V30.5966C87.3208 32.3096 88.7015 33.1278 89.9799 33.1278C90.5424 33.1278 90.9004 33.0255 91.1049 32.9488L90.7981 31.5937C90.6703 31.6193 90.4657 31.6704 90.1333 31.6704C89.4686 31.6704 88.8294 31.4659 88.8294 30.1875V24.4602H90.926V23.1818ZM93.6106 33H95.1958V27.1449H102.176V33H103.761V19.9091H102.176V25.7386H95.1958V19.9091H93.6106V33ZM112.918 28.9858C112.918 30.8267 111.512 31.6704 110.387 31.6704C109.134 31.6704 108.239 30.75 108.239 29.3182V23.1818H106.73V29.4204C106.73 31.9261 108.06 33.1278 109.901 33.1278C111.384 33.1278 112.355 32.3352 112.816 31.338H112.918V33H114.426V23.1818H112.918V28.9858ZM117.394 33H118.851V31.4914H119.03C119.363 32.0284 120.002 33.2045 121.894 33.2045C124.348 33.2045 126.061 31.2358 126.061 28.1164C126.061 25.0227 124.348 23.0539 121.868 23.0539C119.951 23.0539 119.363 24.2301 119.03 24.7414H118.902V19.9091H117.394V33ZM118.877 28.0909C118.877 25.892 119.848 24.4091 121.689 24.4091C123.607 24.4091 124.553 26.0199 124.553 28.0909C124.553 30.1875 123.581 31.8494 121.689 31.8494C119.874 31.8494 118.877 30.3153 118.877 28.0909Z" fill="black"/>
<g clip-path="url(#clip0)">
<path fill-rule="evenodd" clip-rule="evenodd" d="M39.5 7.00006C29.8313 7.00006 22 14.8313 22 24.5001C22 32.2438 27.0094 38.7844 33.9656 41.1032C34.8406 41.2563 35.1687 40.7313 35.1687 40.2719C35.1687 39.8563 35.1469 38.4782 35.1469 37.0126C30.75 37.8219 29.6125 35.9407 29.2625 34.9563C29.0656 34.4532 28.2125 32.9001 27.4688 32.4844C26.8563 32.1563 25.9813 31.3469 27.4469 31.3251C28.825 31.3032 29.8094 32.5938 30.1375 33.1188C31.7125 35.7657 34.2281 35.0219 35.2344 34.5626C35.3875 33.4251 35.8469 32.6594 36.35 32.2219C32.4563 31.7844 28.3875 30.2751 28.3875 23.5813C28.3875 21.6782 29.0656 20.1032 30.1813 18.8782C30.0063 18.4407 29.3938 16.6469 30.3562 14.2407C30.3562 14.2407 31.8219 13.7813 35.1687 16.0344C36.5688 15.6407 38.0562 15.4438 39.5438 15.4438C41.0312 15.4438 42.5188 15.6407 43.9188 16.0344C47.2656 13.7594 48.7313 14.2407 48.7313 14.2407C49.6938 16.6469 49.0813 18.4407 48.9063 18.8782C50.0219 20.1032 50.7 21.6563 50.7 23.5813C50.7 30.2969 46.6094 31.7844 42.7156 32.2219C43.35 32.7688 43.8969 33.8188 43.8969 35.4594C43.8969 37.8001 43.875 39.6813 43.875 40.2719C43.875 40.7313 44.2031 41.2782 45.0781 41.1032C48.5521 39.9303 51.5709 37.6975 53.7095 34.7191C55.8481 31.7408 56.999 28.1667 57 24.5001C57 14.8313 49.1688 7.00006 39.5 7.00006Z" fill="black"/>
</g>
<defs>
<clipPath id="clip0">
<rect x="22" y="7.00006" width="35" height="35" rx="17.5" fill="white"/>
</clipPath>
</defs>
</svg>
