<svg width="150" height="50" viewBox="0 0 150 50" fill="none" xmlns="http://www.w3.org/2000/svg">
<rect x="0.5" y="0.5" width="149" height="49" rx="24.5" stroke="black"/>
<path d="M58.2544 18.9091H56.6692V32H58.2544V18.9091ZM62.7369 26.0938C62.7369 24.3807 63.7979 23.4091 65.2425 23.4091C66.6424 23.4091 67.4925 24.3232 67.4925 25.8637V32H69.0011V25.7614C69.0011 23.2557 67.6651 22.054 65.6772 22.054C64.1942 22.054 63.2738 22.7188 62.8136 23.7159H62.6857V22.1818H61.2283V32H62.7369V26.0938ZM78.7122 24.3807C78.2392 22.9872 77.1781 22.054 75.2349 22.054C73.1639 22.054 71.6298 23.2301 71.6298 24.8921C71.6298 26.2472 72.4352 27.1549 74.2377 27.5767L75.8741 27.9603C76.8649 28.1904 77.3315 28.6634 77.3315 29.3409C77.3315 30.1847 76.4366 30.875 75.0304 30.875C73.7967 30.875 73.0233 30.3445 72.7548 29.2898L71.323 29.6478C71.6745 31.3161 73.0488 32.2046 75.0559 32.2046C77.3379 32.2046 78.8912 30.9581 78.8912 29.2642C78.8912 27.8963 78.0346 27.0334 76.2832 26.6051L74.8258 26.2472C73.6625 25.9595 73.1383 25.5696 73.1383 24.8154C73.1383 23.9716 74.0332 23.358 75.2349 23.358C76.5517 23.358 77.095 24.0867 77.3571 24.7642L78.7122 24.3807ZM85.4318 22.1818H83.3352V19.8296H81.8267V22.1818H80.3438V23.4603H81.8267V29.5966C81.8267 31.3097 83.2074 32.1279 84.4858 32.1279C85.0483 32.1279 85.4062 32.0256 85.6108 31.9489L85.304 30.5938C85.1761 30.6193 84.9716 30.6705 84.6392 30.6705C83.9744 30.6705 83.3352 30.4659 83.3352 29.1875V23.4603H85.4318V22.1818ZM90.5902 32.2301C92.3033 32.2301 93.1982 31.3097 93.505 30.6705H93.5817V32H95.0902V25.5313C95.0902 22.412 92.7124 22.054 91.4595 22.054C89.9766 22.054 88.2891 22.5654 87.522 24.3551L88.9538 24.8665C89.2862 24.1506 90.0724 23.3836 91.5107 23.3836C92.8977 23.3836 93.5817 24.1186 93.5817 25.3779V25.429C93.5817 26.1577 92.8402 26.0938 91.0504 26.3239C89.2287 26.5604 87.2408 26.9631 87.2408 29.2131C87.2408 31.1307 88.7237 32.2301 90.5902 32.2301ZM90.8203 30.875C89.6186 30.875 88.7493 30.3381 88.7493 29.2898C88.7493 28.1392 89.7976 27.7813 90.9737 27.6279C91.6129 27.5512 93.326 27.3722 93.5817 27.0654V28.4461C93.5817 29.6733 92.6101 30.875 90.8203 30.875ZM101.807 35.8864C104.159 35.8864 106.051 34.8125 106.051 32.2813V22.1818H104.594V23.7415H104.44C104.108 23.2301 103.494 22.054 101.577 22.054C99.0964 22.054 97.3833 24.0228 97.3833 27.0398C97.3833 30.108 99.1731 31.8466 101.551 31.8466C103.469 31.8466 104.082 30.7216 104.415 30.1847H104.542V32.179C104.542 33.8154 103.392 34.5568 101.807 34.5568C100.023 34.5568 99.3968 33.6172 98.9941 33.0739L97.7924 33.9176C98.4061 34.9468 99.6142 35.8864 101.807 35.8864ZM101.756 30.4915C99.8635 30.4915 98.8919 29.0597 98.8919 27.0142C98.8919 25.0199 99.8379 23.4091 101.756 23.4091C103.596 23.4091 104.568 24.8921 104.568 27.0142C104.568 29.1875 103.571 30.4915 101.756 30.4915ZM108.812 32H110.321V25.787C110.321 24.4574 111.369 23.4858 112.801 23.4858C113.204 23.4858 113.619 23.5625 113.721 23.5881V22.054C113.549 22.0412 113.153 22.0284 112.929 22.0284C111.753 22.0284 110.73 22.6932 110.372 23.6648H110.27V22.1818H108.812V32ZM118.399 32.2301C120.112 32.2301 121.007 31.3097 121.314 30.6705H121.39V32H122.899V25.5313C122.899 22.412 120.521 22.054 119.268 22.054C117.785 22.054 116.098 22.5654 115.331 24.3551L116.762 24.8665C117.095 24.1506 117.881 23.3836 119.319 23.3836C120.706 23.3836 121.39 24.1186 121.39 25.3779V25.429C121.39 26.1577 120.649 26.0938 118.859 26.3239C117.037 26.5604 115.049 26.9631 115.049 29.2131C115.049 31.1307 116.532 32.2301 118.399 32.2301ZM118.629 30.875C117.427 30.875 116.558 30.3381 116.558 29.2898C116.558 28.1392 117.606 27.7813 118.782 27.6279C119.422 27.5512 121.135 27.3722 121.39 27.0654V28.4461C121.39 29.6733 120.419 30.875 118.629 30.875ZM125.652 32H127.161V25.8637C127.161 24.4255 128.209 23.4091 129.385 23.4091C130.529 23.4091 131.328 24.157 131.328 25.2756V32H132.862V25.608C132.862 24.3424 133.655 23.4091 135.036 23.4091C136.11 23.4091 137.03 23.978 137.03 25.429V32H138.539V25.429C138.539 23.1215 137.298 22.054 135.547 22.054C134.141 22.054 133.112 22.6996 132.607 23.7159H132.504C132.019 22.6676 131.162 22.054 129.871 22.054C128.593 22.054 127.646 22.6676 127.237 23.7159H127.11V22.1818H125.652V32Z" fill="black"/>
<path fill-rule="evenodd" clip-rule="evenodd" d="M20.8865 9.55462C22.5971 9.47587 23.1425 9.45837 27.5 9.45837C31.8575 9.45837 32.4029 9.47733 34.1121 9.55462C35.8213 9.63192 36.9879 9.90462 38.0088 10.2998C39.0777 10.7038 40.0475 11.3352 40.8496 12.1519C41.6663 12.9525 42.2963 13.9209 42.6988 14.9913C43.0954 16.0121 43.3667 17.1788 43.4454 18.885C43.5242 20.5986 43.5417 21.144 43.5417 25.5C43.5417 29.8575 43.5227 30.403 43.4454 32.1136C43.3681 33.8198 43.0954 34.9865 42.6988 36.0073C42.2963 37.0779 41.6652 38.0478 40.8496 38.8496C40.0475 39.6663 39.0777 40.2963 38.0088 40.6988C36.9879 41.0955 35.8213 41.3667 34.115 41.4455C32.4029 41.5242 31.8575 41.5417 27.5 41.5417C23.1425 41.5417 22.5971 41.5228 20.8865 41.4455C19.1802 41.3682 18.0136 41.0955 16.9927 40.6988C15.9222 40.2962 14.9522 39.6652 14.1504 38.8496C13.3343 38.0485 12.7028 37.079 12.2998 36.0088C11.9046 34.988 11.6333 33.8213 11.5546 32.115C11.4758 30.4015 11.4583 29.8561 11.4583 25.5C11.4583 21.1425 11.4773 20.5971 11.5546 18.888C11.6319 17.1788 11.9046 16.0121 12.2998 14.9913C12.7034 13.921 13.3354 12.9515 14.1519 12.1505C14.9526 11.3345 15.9215 10.703 16.9913 10.2998C18.0121 9.90462 19.1788 9.63337 20.885 9.55462H20.8865ZM33.9823 12.4421C32.2906 12.3648 31.7831 12.3488 27.5 12.3488C23.2169 12.3488 22.7094 12.3648 21.0177 12.4421C19.4529 12.5136 18.6042 12.7746 18.0383 12.9948C17.2902 13.2865 16.755 13.6321 16.1936 14.1936C15.6613 14.7114 15.2517 15.3417 14.9948 16.0384C14.7746 16.6042 14.5136 17.453 14.4421 19.0177C14.3648 20.7094 14.3488 21.2169 14.3488 25.5C14.3488 29.7832 14.3648 30.2907 14.4421 31.9823C14.5136 33.5471 14.7746 34.3959 14.9948 34.9617C15.2515 35.6573 15.6613 36.2888 16.1936 36.8065C16.7113 37.3388 17.3427 37.7486 18.0383 38.0053C18.6042 38.2255 19.4529 38.4865 21.0177 38.558C22.7094 38.6353 23.2154 38.6513 27.5 38.6513C31.7846 38.6513 32.2906 38.6353 33.9823 38.558C35.5471 38.4865 36.3958 38.2255 36.9617 38.0053C37.7098 37.7136 38.245 37.368 38.8065 36.8065C39.3388 36.2888 39.7486 35.6573 40.0052 34.9617C40.2254 34.3959 40.4865 33.5471 40.5579 31.9823C40.6352 30.2907 40.6513 29.7832 40.6513 25.5C40.6513 21.2169 40.6352 20.7094 40.5579 19.0177C40.4865 17.453 40.2254 16.6042 40.0052 16.0384C39.7136 15.2902 39.3679 14.755 38.8065 14.1936C38.2887 13.6614 37.6583 13.2518 36.9617 12.9948C36.3958 12.7746 35.5471 12.5136 33.9823 12.4421ZM25.4511 30.4453C26.5953 30.9216 27.8695 30.9859 29.056 30.6271C30.2424 30.2684 31.2675 29.5089 31.9561 28.4783C32.6448 27.4477 32.9543 26.2101 32.8317 24.9767C32.7092 23.7432 32.1623 22.5906 31.2844 21.7157C30.7247 21.1564 30.048 20.7281 29.303 20.4617C28.558 20.1953 27.7631 20.0974 26.9757 20.1751C26.1883 20.2528 25.4279 20.5041 24.7493 20.9109C24.0707 21.3177 23.4907 21.8699 23.0511 22.5277C22.6115 23.1856 22.3232 23.9328 22.207 24.7154C22.0908 25.498 22.1496 26.2967 22.3791 27.0539C22.6087 27.8111 23.0032 28.508 23.5344 29.0944C24.0656 29.6808 24.7202 30.1422 25.4511 30.4453ZM21.6696 19.6696C22.4353 18.904 23.3442 18.2966 24.3446 17.8822C25.345 17.4679 26.4172 17.2546 27.5 17.2546C28.5828 17.2546 29.655 17.4679 30.6554 17.8822C31.6558 18.2966 32.5648 18.904 33.3304 19.6696C34.0961 20.4353 34.7034 21.3443 35.1178 22.3446C35.5322 23.345 35.7455 24.4172 35.7455 25.5C35.7455 26.5829 35.5322 27.6551 35.1178 28.6554C34.7034 29.6558 34.0961 30.5648 33.3304 31.3305C31.7841 32.8768 29.6868 33.7455 27.5 33.7455C25.3132 33.7455 23.2159 32.8768 21.6696 31.3305C20.1233 29.7841 19.2546 27.6869 19.2546 25.5C19.2546 23.3132 20.1233 21.2159 21.6696 19.6696ZM37.5742 18.4825C37.7639 18.3036 37.9158 18.0883 38.0209 17.8496C38.1259 17.6108 38.182 17.3535 38.1858 17.0926C38.1896 16.8318 38.1411 16.5729 38.043 16.3312C37.945 16.0895 37.7994 15.87 37.615 15.6855C37.4305 15.5011 37.211 15.3555 36.9692 15.2575C36.7275 15.1594 36.4686 15.1108 36.2078 15.1146C35.947 15.1184 35.6896 15.1745 35.4509 15.2796C35.2121 15.3847 34.9969 15.5366 34.8179 15.7263C34.4698 16.0953 34.2793 16.5854 34.2867 17.0926C34.2941 17.5999 34.4988 18.0842 34.8575 18.4429C35.2162 18.8016 35.7006 19.0064 36.2078 19.0138C36.715 19.0212 37.2052 18.8306 37.5742 18.4825Z" fill="black"/>
</svg>
