<svg width="150" height="50" viewBox="0 0 150 50" fill="none" xmlns="http://www.w3.org/2000/svg">
<rect x="0.5" y="0.5" width="149" height="49" rx="24.5" stroke="black"/>
<path d="M62.9544 32H70.6248V30.5938H64.5396V18.9091H62.9544V32ZM72.8748 32H74.3833V22.1818H72.8748V32ZM73.6419 20.5455C74.2299 20.5455 74.7157 20.0853 74.7157 19.5228C74.7157 18.9603 74.2299 18.5 73.6419 18.5C73.0538 18.5 72.568 18.9603 72.568 19.5228C72.568 20.0853 73.0538 20.5455 73.6419 20.5455ZM78.6548 26.0938C78.6548 24.3807 79.7159 23.4091 81.1605 23.4091C82.5604 23.4091 83.4105 24.3232 83.4105 25.8637V32H84.919V25.7614C84.919 23.2557 83.5831 22.054 81.5952 22.054C80.1122 22.054 79.1918 22.7188 78.7315 23.7159H78.6037V22.1818H77.1463V32H78.6548V26.0938ZM87.6756 32H89.1841V28.3246L90.2388 27.3466L93.9142 32H95.8319L91.3766 26.375L95.525 22.1818H93.6586L89.3631 26.554H89.1841V18.9091H87.6756V32ZM101.179 32.2046C103.173 32.2046 104.631 31.2074 105.091 29.7245L103.633 29.3154C103.25 30.3381 102.361 30.8495 101.179 30.8495C99.4082 30.8495 98.1873 29.7053 98.117 27.6023H105.244V26.9631C105.244 23.3068 103.071 22.054 101.025 22.054C98.3663 22.054 96.6021 24.1506 96.6021 27.1676C96.6021 30.1847 98.3407 32.2046 101.179 32.2046ZM98.117 26.2983C98.2193 24.7706 99.2995 23.4091 101.025 23.4091C102.662 23.4091 103.71 24.6364 103.71 26.2983H98.117ZM111.246 32.2046C113.138 32.2046 113.778 31.0284 114.11 30.4915H114.289V32H115.746V18.9091H114.238V23.7415H114.11C113.778 23.2301 113.189 22.054 111.272 22.054C108.792 22.054 107.079 24.0228 107.079 27.1165C107.079 30.2358 108.792 32.2046 111.246 32.2046ZM111.451 30.8495C109.559 30.8495 108.587 29.1875 108.587 27.0909C108.587 25.0199 109.533 23.4091 111.451 23.4091C113.292 23.4091 114.263 24.8921 114.263 27.0909C114.263 29.3154 113.266 30.8495 111.451 30.8495ZM120.508 18.9091H118.923V32H120.508V18.9091ZM124.991 26.0938C124.991 24.3807 126.052 23.4091 127.496 23.4091C128.896 23.4091 129.746 24.3232 129.746 25.8637V32H131.255V25.7614C131.255 23.2557 129.919 22.054 127.931 22.054C126.448 22.054 125.528 22.7188 125.067 23.7159H124.94V22.1818H123.482V32H124.991V26.0938Z" fill="black"/>
<path fill-rule="evenodd" clip-rule="evenodd" d="M17.4583 11.1388C17.4583 10.4279 17.7407 9.74613 18.2434 9.24345C18.7461 8.74078 19.4279 8.45838 20.1387 8.45838H46.8583C47.2106 8.4578 47.5596 8.52672 47.8852 8.66118C48.2108 8.79565 48.5067 8.99302 48.756 9.24199C49.0052 9.49097 49.2029 9.78666 49.3377 10.1121C49.4726 10.4376 49.5419 10.7865 49.5417 11.1388V37.8584C49.542 38.2107 49.473 38.5597 49.3383 38.8854C49.2037 39.211 49.0062 39.5069 48.7571 39.7561C48.508 40.0053 48.2122 40.203 47.8867 40.3378C47.5611 40.4726 47.2122 40.5419 46.8598 40.5417H20.1387C19.7866 40.5417 19.438 40.4723 19.1127 40.3375C18.7874 40.2027 18.4918 40.0052 18.2429 39.7561C17.994 39.5071 17.7966 39.2114 17.6619 38.886C17.5273 38.5607 17.4581 38.212 17.4583 37.8598V11.1388ZM30.1575 20.6909H34.5019V22.8725C35.129 21.6184 36.7331 20.4896 39.1437 20.4896C43.7652 20.4896 44.8604 22.9878 44.8604 27.5713V36.0617H40.1835V28.6155C40.1835 26.005 39.5565 24.5321 37.964 24.5321C35.7546 24.5321 34.8358 26.1203 34.8358 28.6155V36.0617H30.1575V20.6909ZM22.1367 35.8619H26.815V20.4896H22.1367V35.8605V35.8619ZM27.4844 15.4759C27.4932 15.8764 27.4219 16.2747 27.2747 16.6474C27.1275 17.02 26.9074 17.3595 26.6272 17.6459C26.347 17.9323 26.0125 18.1599 25.6432 18.3153C25.2738 18.4706 24.8772 18.5507 24.4766 18.5507C24.0759 18.5507 23.6793 18.4706 23.31 18.3153C22.9406 18.1599 22.6061 17.9323 22.3259 17.6459C22.0457 17.3595 21.8256 17.02 21.6784 16.6474C21.5312 16.2747 21.4599 15.8764 21.4687 15.4759C21.4861 14.6896 21.8106 13.9414 22.3727 13.3915C22.9349 12.8415 23.6901 12.5336 24.4766 12.5336C25.263 12.5336 26.0182 12.8415 26.5804 13.3915C27.1426 13.9414 27.4671 14.6896 27.4844 15.4759Z" fill="black"/>
</svg>
