<svg width="693" height="392" viewBox="0 0 693 392" fill="none" xmlns="http://www.w3.org/2000/svg">
<path d="M237.045 383.384C242.274 383.384 245.56 380.315 245.815 375.803H240.676C240.357 377.899 238.976 379.075 237.109 379.075C234.565 379.075 232.916 376.94 232.916 373.182C232.916 369.474 234.578 367.352 237.109 367.352C239.104 367.352 240.382 368.669 240.676 370.625H245.815C245.585 366.087 242.146 363.108 237.02 363.108C231.062 363.108 227.381 367.237 227.381 373.259C227.381 379.229 230.999 383.384 237.045 383.384ZM258.174 383.384C264.132 383.384 267.839 379.305 267.839 373.259C267.839 367.173 264.132 363.108 258.174 363.108C252.217 363.108 248.51 367.173 248.51 373.259C248.51 379.305 252.217 383.384 258.174 383.384ZM258.2 379.165C255.451 379.165 254.045 376.646 254.045 373.22C254.045 369.794 255.451 367.263 258.2 367.263C260.897 367.263 262.304 369.794 262.304 373.22C262.304 376.646 260.897 379.165 258.2 379.165ZM271.38 383H276.826V371.213C276.826 369.04 278.207 367.595 280.022 367.595C281.812 367.595 283.014 368.822 283.014 370.753V383H288.294V371.009C288.294 368.976 289.457 367.595 291.439 367.595C293.177 367.595 294.481 368.682 294.481 370.868V383H299.914V369.794C299.914 365.537 297.383 363.108 293.727 363.108C290.85 363.108 288.613 364.578 287.808 366.828H287.603C286.977 364.553 284.97 363.108 282.272 363.108C279.626 363.108 277.619 364.514 276.801 366.828H276.571V363.364H271.38V383ZM304.216 383H309.662V363.364H304.216V383ZM306.952 360.832C308.576 360.832 309.905 359.592 309.905 358.071C309.905 356.562 308.576 355.322 306.952 355.322C305.341 355.322 304.012 356.562 304.012 358.071C304.012 359.592 305.341 360.832 306.952 360.832ZM319.471 371.648C319.484 369.116 320.992 367.634 323.191 367.634C325.377 367.634 326.694 369.065 326.681 371.469V383H332.127V370.497C332.127 365.92 329.442 363.108 325.352 363.108C322.437 363.108 320.327 364.54 319.445 366.828H319.215V363.364H314.025V383H319.471V371.648ZM345.266 390.773C350.878 390.773 354.867 388.216 354.867 383.192V363.364H349.459V366.662H349.255C348.526 365.064 346.928 363.108 343.642 363.108C339.334 363.108 335.691 366.457 335.691 373.143C335.691 379.676 339.232 382.719 343.655 382.719C346.787 382.719 348.539 381.146 349.255 379.523H349.485V383.115C349.485 385.812 347.759 386.861 345.394 386.861C342.99 386.861 341.776 385.812 341.328 384.624L336.292 385.301C336.944 388.395 339.973 390.773 345.266 390.773ZM345.381 378.628C342.709 378.628 341.252 376.506 341.252 373.118C341.252 369.781 342.684 367.442 345.381 367.442C348.027 367.442 349.51 369.679 349.51 373.118C349.51 376.582 348.002 378.628 345.381 378.628Z" fill="black"/>
<path d="M383.871 368.963C383.385 365.345 380.47 363.108 375.51 363.108C370.486 363.108 367.175 365.435 367.188 369.219C367.175 372.159 369.028 374.064 372.864 374.831L376.264 375.509C377.977 375.854 378.757 376.48 378.783 377.464C378.757 378.628 377.491 379.459 375.587 379.459C373.643 379.459 372.352 378.628 372.02 377.03L366.663 377.311C367.175 381.07 370.371 383.384 375.574 383.384C380.662 383.384 384.305 380.788 384.318 376.915C384.305 374.077 382.452 372.376 378.642 371.597L375.088 370.881C373.26 370.484 372.582 369.858 372.595 368.912C372.582 367.736 373.912 366.969 375.599 366.969C377.491 366.969 378.616 368.004 378.885 369.27L383.871 368.963ZM396.62 383.384C402.577 383.384 406.284 379.305 406.284 373.259C406.284 367.173 402.577 363.108 396.62 363.108C390.662 363.108 386.955 367.173 386.955 373.259C386.955 379.305 390.662 383.384 396.62 383.384ZM396.645 379.165C393.897 379.165 392.49 376.646 392.49 373.22C392.49 369.794 393.897 367.263 396.645 367.263C399.343 367.263 400.749 369.794 400.749 373.22C400.749 376.646 399.343 379.165 396.645 379.165ZM418.698 383.384C424.655 383.384 428.363 379.305 428.363 373.259C428.363 367.173 424.655 363.108 418.698 363.108C412.74 363.108 409.033 367.173 409.033 373.259C409.033 379.305 412.74 383.384 418.698 383.384ZM418.723 379.165C415.975 379.165 414.569 376.646 414.569 373.22C414.569 369.794 415.975 367.263 418.723 367.263C421.421 367.263 422.827 369.794 422.827 373.22C422.827 376.646 421.421 379.165 418.723 379.165ZM437.35 371.648C437.363 369.116 438.871 367.634 441.07 367.634C443.256 367.634 444.573 369.065 444.56 371.469V383H450.006V370.497C450.006 365.92 447.321 363.108 443.23 363.108C440.316 363.108 438.206 364.54 437.324 366.828H437.094V363.364H431.904V383H437.35V371.648ZM457.482 383.332C459.118 383.332 460.537 381.964 460.55 380.264C460.537 378.589 459.118 377.222 457.482 377.222C455.794 377.222 454.401 378.589 454.413 380.264C454.401 381.964 455.794 383.332 457.482 383.332Z" fill="#111111"/>
<path d="M6.06818 139.182V209H20.3864V163.386H20.9659L39.0341 208.659H48.7841L66.8523 163.557H67.4318V209H81.75V139.182H63.5455L44.3182 186.091H43.5L24.2727 139.182H6.06818ZM89.821 139.182L115.287 184.318V209H129.946V184.318L155.412 139.182H138.878L122.957 169.25H122.276L106.355 139.182H89.821ZM185.693 209H200.455V186.364H212.864C228.92 186.364 238.261 176.784 238.261 162.841C238.261 148.966 229.091 139.182 213.239 139.182H185.693V209ZM200.455 174.534V151.25H210.409C218.932 151.25 223.057 155.886 223.057 162.841C223.057 169.761 218.932 174.534 210.477 174.534H200.455ZM247.849 209H262.611V184.25H273.384L286.611 209H302.906L288.077 181.864C296.02 178.455 300.418 171.534 300.418 161.989C300.418 148.114 291.247 139.182 275.395 139.182H247.849V209ZM262.611 172.386V151.25H272.565C281.088 151.25 285.213 155.034 285.213 161.989C285.213 168.909 281.088 172.386 272.634 172.386H262.611ZM375.009 174.091C375.009 151.25 360.827 138.227 342.315 138.227C323.702 138.227 309.622 151.25 309.622 174.091C309.622 196.83 323.702 209.955 342.315 209.955C360.827 209.955 375.009 196.932 375.009 174.091ZM360.043 174.091C360.043 188.886 353.02 196.898 342.315 196.898C331.577 196.898 324.588 188.886 324.588 174.091C324.588 159.295 331.577 151.284 342.315 151.284C353.02 151.284 360.043 159.295 360.043 174.091ZM413.898 139.182V187.864C413.864 194.58 410.864 198.125 405.409 198.125C400.261 198.125 396.92 194.92 396.818 189.364H382.125C382.057 203.307 392.011 209.955 404.659 209.955C418.807 209.955 428.455 201.398 428.489 187.864V139.182H413.898ZM440.693 209H487.875V196.83H455.455V180.159H485.318V167.989H455.455V151.352H487.739V139.182H440.693V209ZM561.077 163.625C559.134 147.5 546.929 138.227 530.77 138.227C512.327 138.227 498.247 151.25 498.247 174.091C498.247 196.864 512.088 209.955 530.77 209.955C548.668 209.955 559.474 198.057 561.077 185.205L546.145 185.136C544.747 192.602 538.884 196.898 531.009 196.898C520.406 196.898 513.213 189.023 513.213 174.091C513.213 159.568 520.304 151.284 531.111 151.284C539.19 151.284 545.02 155.955 546.145 163.625H561.077ZM569.003 151.352H590.378V209H604.969V151.352H626.344V139.182H569.003V151.352ZM673.662 159.261H687.81C687.605 146.818 677.378 138.227 661.832 138.227C646.526 138.227 635.31 146.682 635.378 159.364C635.344 169.659 642.605 175.557 654.401 178.386L662.003 180.295C669.605 182.136 673.832 184.318 673.866 189.023C673.832 194.136 668.991 197.614 661.491 197.614C653.821 197.614 648.298 194.068 647.821 187.08H633.537C633.912 202.182 644.719 209.989 661.662 209.989C678.707 209.989 688.73 201.841 688.764 189.057C688.73 177.432 679.969 171.261 667.832 168.534L661.56 167.034C655.491 165.636 650.412 163.386 650.514 158.375C650.514 153.875 654.503 150.568 661.73 150.568C668.787 150.568 673.116 153.773 673.662 159.261Z" fill="black"/>
<path d="M6.06818 23.1818V22.1818H5.06818V23.1818H6.06818ZM6.06818 93H5.06818V94H6.06818V93ZM20.3864 93V94H21.3864V93H20.3864ZM20.3864 47.3864V46.3864H19.3864V47.3864H20.3864ZM20.9659 47.3864L21.8947 47.0157L21.6435 46.3864H20.9659V47.3864ZM39.0341 92.6591L38.1053 93.0298L38.3565 93.6591H39.0341V92.6591ZM48.7841 92.6591V93.6591H49.4607L49.7124 93.031L48.7841 92.6591ZM66.8523 47.5568V46.5568H66.1756L65.924 47.1849L66.8523 47.5568ZM67.4318 47.5568H68.4318V46.5568H67.4318V47.5568ZM67.4318 93H66.4318V94H67.4318V93ZM81.75 93V94H82.75V93H81.75ZM81.75 23.1818H82.75V22.1818H81.75V23.1818ZM63.5455 23.1818V22.1818H62.8746L62.6202 22.8026L63.5455 23.1818ZM44.3182 70.0909V71.0909H44.989L45.2435 70.4702L44.3182 70.0909ZM43.5 70.0909L42.5747 70.4702L42.8291 71.0909H43.5V70.0909ZM24.2727 23.1818L25.198 22.8026L24.9436 22.1818H24.2727V23.1818ZM5.06818 23.1818V93H7.06818V23.1818H5.06818ZM6.06818 94H20.3864V92H6.06818V94ZM21.3864 93V47.3864H19.3864V93H21.3864ZM20.3864 48.3864H20.9659V46.3864H20.3864V48.3864ZM20.0371 47.757L38.1053 93.0298L39.9629 92.2884L21.8947 47.0157L20.0371 47.757ZM39.0341 93.6591H48.7841V91.6591H39.0341V93.6591ZM49.7124 93.031L67.7806 47.9287L65.924 47.1849L47.8558 92.2872L49.7124 93.031ZM66.8523 48.5568H67.4318V46.5568H66.8523V48.5568ZM66.4318 47.5568V93H68.4318V47.5568H66.4318ZM67.4318 94H81.75V92H67.4318V94ZM82.75 93V23.1818H80.75V93H82.75ZM81.75 22.1818H63.5455V24.1818H81.75V22.1818ZM62.6202 22.8026L43.3929 69.7116L45.2435 70.4702L64.4707 23.5611L62.6202 22.8026ZM44.3182 69.0909H43.5V71.0909H44.3182V69.0909ZM44.4253 69.7116L25.198 22.8026L23.3474 23.5611L42.5747 70.4702L44.4253 69.7116ZM24.2727 22.1818H6.06818V24.1818H24.2727V22.1818ZM89.821 23.1818V22.1818H88.1086L88.9501 23.6732L89.821 23.1818ZM115.287 68.3182H116.287V68.0555L116.158 67.8268L115.287 68.3182ZM115.287 93H114.287V94H115.287V93ZM129.946 93V94H130.946V93H129.946ZM129.946 68.3182L129.075 67.8268L128.946 68.0555V68.3182H129.946ZM155.412 23.1818L156.283 23.6732L157.124 22.1818H155.412V23.1818ZM138.878 23.1818V22.1818H138.276L137.994 22.7139L138.878 23.1818ZM122.957 53.25V54.25H123.559L123.841 53.7179L122.957 53.25ZM122.276 53.25L121.392 53.7179L121.674 54.25H122.276V53.25ZM106.355 23.1818L107.239 22.7139L106.957 22.1818H106.355V23.1818ZM88.9501 23.6732L114.416 68.8096L116.158 67.8268L90.692 22.6904L88.9501 23.6732ZM114.287 68.3182V93H116.287V68.3182H114.287ZM115.287 94H129.946V92H115.287V94ZM130.946 93V68.3182H128.946V93H130.946ZM130.817 68.8096L156.283 23.6732L154.541 22.6904L129.075 67.8268L130.817 68.8096ZM155.412 22.1818H138.878V24.1818H155.412V22.1818ZM137.994 22.7139L122.074 52.7821L123.841 53.7179L139.762 23.6497L137.994 22.7139ZM122.957 52.25H122.276V54.25H122.957V52.25ZM123.159 52.7821L107.239 22.7139L105.471 23.6497L121.392 53.7179L123.159 52.7821ZM106.355 22.1818H89.821V24.1818H106.355V22.1818ZM185.693 93H184.693V94H185.693V93ZM200.455 93V94H201.455V93H200.455ZM200.455 70.3636V69.3636H199.455V70.3636H200.455ZM185.693 23.1818V22.1818H184.693V23.1818H185.693ZM200.455 58.5341H199.455V59.5341H200.455V58.5341ZM200.455 35.25V34.25H199.455V35.25H200.455ZM185.693 94H200.455V92H185.693V94ZM201.455 93V70.3636H199.455V93H201.455ZM200.455 71.3636H212.864V69.3636H200.455V71.3636ZM212.864 71.3636C221.091 71.3636 227.707 68.9062 232.274 64.5549C236.844 60.2 239.261 54.042 239.261 46.8409H237.261C237.261 53.583 235.008 59.1863 230.894 63.107C226.776 67.0313 220.693 69.3636 212.864 69.3636V71.3636ZM239.261 46.8409C239.261 39.679 236.89 33.4909 232.394 29.0933C227.898 24.6962 221.373 22.1818 213.239 22.1818V24.1818C220.956 24.1818 226.943 26.5595 230.995 30.5231C235.047 34.4863 237.261 40.1278 237.261 46.8409H239.261ZM213.239 22.1818H185.693V24.1818H213.239V22.1818ZM184.693 23.1818V93H186.693V23.1818H184.693ZM201.455 58.5341V35.25H199.455V58.5341H201.455ZM200.455 36.25H210.409V34.25H200.455V36.25ZM210.409 36.25C214.494 36.25 217.376 37.3588 219.234 39.1562C221.088 40.9503 222.057 43.5606 222.057 46.8409H224.057C224.057 43.1666 222.963 39.9815 220.624 37.7188C218.289 35.4594 214.847 34.25 210.409 34.25V36.25ZM222.057 46.8409C222.057 50.1038 221.088 52.7444 219.236 54.5705C217.383 56.3967 214.518 57.5341 210.477 57.5341V59.5341C214.891 59.5341 218.316 58.2851 220.639 55.9948C222.963 53.7045 224.057 50.4985 224.057 46.8409H222.057ZM210.477 57.5341H200.455V59.5341H210.477V57.5341ZM247.849 93H246.849V94H247.849V93ZM262.611 93V94H263.611V93H262.611ZM262.611 68.25V67.25H261.611V68.25H262.611ZM273.384 68.25L274.265 67.7787L273.983 67.25H273.384V68.25ZM286.611 93L285.729 93.4713L286.011 94H286.611V93ZM302.906 93V94H304.592L303.784 92.5205L302.906 93ZM288.077 65.8636L287.682 64.9447L286.672 65.3783L287.199 66.3432L288.077 65.8636ZM247.849 23.1818V22.1818H246.849V23.1818H247.849ZM262.611 56.3864H261.611V57.3864H262.611V56.3864ZM262.611 35.25V34.25H261.611V35.25H262.611ZM247.849 94H262.611V92H247.849V94ZM263.611 93V68.25H261.611V93H263.611ZM262.611 69.25H273.384V67.25H262.611V69.25ZM272.502 68.7213L285.729 93.4713L287.493 92.5287L274.265 67.7787L272.502 68.7213ZM286.611 94H302.906V92H286.611V94ZM303.784 92.5205L288.954 65.3841L287.199 66.3432L302.029 93.4795L303.784 92.5205ZM288.471 66.7826C296.817 63.2008 301.418 55.8944 301.418 45.9886H299.418C299.418 55.1738 295.223 61.7083 287.682 64.9447L288.471 66.7826ZM301.418 45.9886C301.418 38.8232 299.043 32.8374 294.531 28.6492C290.027 24.4687 283.505 22.1818 275.395 22.1818V24.1818C283.137 24.1818 289.126 26.3609 293.171 30.115C297.207 33.8615 299.418 39.279 299.418 45.9886H301.418ZM275.395 22.1818H247.849V24.1818H275.395V22.1818ZM246.849 23.1818V93H248.849V23.1818H246.849ZM263.611 56.3864V35.25H261.611V56.3864H263.611ZM262.611 36.25H272.565V34.25H262.611V36.25ZM272.565 36.25C276.699 36.25 279.586 37.1702 281.431 38.7674C283.249 40.3418 284.213 42.7134 284.213 45.9886H286.213C286.213 42.3093 285.115 39.3116 282.74 37.2554C280.391 35.2218 276.954 34.25 272.565 34.25V36.25ZM284.213 45.9886C284.213 49.2437 283.252 51.5209 281.455 53.0134C279.622 54.5359 276.749 55.3864 272.634 55.3864V57.3864C276.972 57.3864 280.39 56.4982 282.733 54.5519C285.112 52.5756 286.213 49.6541 286.213 45.9886H284.213ZM272.634 55.3864H262.611V57.3864H272.634V55.3864ZM376.009 58.0909C376.009 46.4604 372.394 37.2306 366.326 30.9016C360.256 24.5721 351.811 21.2273 342.315 21.2273V23.2273C351.331 23.2273 359.232 26.3938 364.882 32.2859C370.532 38.1785 374.009 46.8805 374.009 58.0909H376.009ZM342.315 21.2273C332.769 21.2273 324.323 24.5714 318.266 30.9024C312.21 37.2323 308.622 46.4624 308.622 58.0909H310.622C310.622 46.8785 314.074 38.1768 319.711 32.2851C325.347 26.3945 333.248 23.2273 342.315 23.2273V21.2273ZM308.622 58.0909C308.622 69.6693 312.21 78.8985 318.265 85.2403C324.322 91.5834 332.767 94.9545 342.315 94.9545V92.9545C333.25 92.9545 325.349 89.7632 319.712 83.8592C314.074 77.9538 310.622 69.2512 310.622 58.0909H308.622ZM342.315 94.9545C351.811 94.9545 360.256 91.6097 366.326 85.2802C372.394 78.9513 376.009 69.7214 376.009 58.0909H374.009C374.009 69.3013 370.532 78.0033 364.882 83.896C359.232 89.788 351.331 92.9545 342.315 92.9545V94.9545ZM359.043 58.0909C359.043 65.344 357.32 70.7972 354.413 74.4165C351.529 78.0088 347.396 79.8977 342.315 79.8977V81.8977C347.939 81.8977 352.67 79.781 355.973 75.6688C359.254 71.5835 361.043 65.6332 361.043 58.0909H359.043ZM342.315 79.8977C337.217 79.8977 333.085 78.0083 330.205 74.417C327.303 70.7982 325.588 65.3451 325.588 58.0909H323.588C323.588 65.6321 325.368 71.5825 328.645 75.6683C331.943 79.7815 336.675 81.8977 342.315 81.8977V79.8977ZM325.588 58.0909C325.588 50.8367 327.303 45.3837 330.205 41.7648C333.085 38.1735 337.217 36.2841 342.315 36.2841V34.2841C336.675 34.2841 331.943 36.4003 328.645 40.5136C325.368 44.5993 323.588 50.5497 323.588 58.0909H325.588ZM342.315 36.2841C347.396 36.2841 351.529 38.1731 354.413 41.7654C357.32 45.3846 359.043 50.8378 359.043 58.0909H361.043C361.043 50.5486 359.254 44.5983 355.973 40.513C352.67 36.4008 347.939 34.2841 342.315 34.2841V36.2841ZM413.898 23.1818V22.1818H412.898V23.1818H413.898ZM413.898 71.8636L414.898 71.8687V71.8636H413.898ZM396.818 73.3636L397.818 73.3452L397.8 72.3636H396.818V73.3636ZM382.125 73.3636V72.3636H381.13L381.125 73.3587L382.125 73.3636ZM428.489 71.8636L429.489 71.8662V71.8636H428.489ZM428.489 23.1818H429.489V22.1818H428.489V23.1818ZM412.898 23.1818V71.8636H414.898V23.1818H412.898ZM412.898 71.8586C412.881 75.0875 412.15 77.3913 410.917 78.8732C409.71 80.3239 407.906 81.125 405.409 81.125V83.125C408.367 83.125 410.79 82.1534 412.455 80.1524C414.094 78.1826 414.88 75.3556 414.898 71.8687L412.898 71.8586ZM405.409 81.125C403.046 81.125 401.198 80.3939 399.93 79.122C398.66 77.8484 397.866 75.9265 397.818 73.3452L395.818 73.382C395.873 76.3576 396.801 78.8164 398.513 80.5342C400.228 82.2538 402.625 83.125 405.409 83.125V81.125ZM396.818 72.3636H382.125V74.3636H396.818V72.3636ZM381.125 73.3587C381.09 80.5905 383.665 86.0354 387.981 89.6541C392.271 93.2507 398.173 94.9545 404.659 94.9545V92.9545C398.498 92.9545 393.098 91.3345 389.266 88.1215C385.46 84.9305 383.092 80.08 383.125 73.3685L381.125 73.3587ZM404.659 94.9545C411.932 94.9545 418.139 92.7529 422.542 88.722C426.954 84.6827 429.471 78.8827 429.489 71.8662L427.489 71.8611C427.472 78.3787 425.148 83.6241 421.191 87.2468C417.225 90.8777 411.533 92.9545 404.659 92.9545V94.9545ZM429.489 71.8636V23.1818H427.489V71.8636H429.489ZM428.489 22.1818H413.898V24.1818H428.489V22.1818ZM440.693 93H439.693V94H440.693V93ZM487.875 93V94H488.875V93H487.875ZM487.875 80.8295H488.875V79.8295H487.875V80.8295ZM455.455 80.8295H454.455V81.8295H455.455V80.8295ZM455.455 64.1591V63.1591H454.455V64.1591H455.455ZM485.318 64.1591V65.1591H486.318V64.1591H485.318ZM485.318 51.9886H486.318V50.9886H485.318V51.9886ZM455.455 51.9886H454.455V52.9886H455.455V51.9886ZM455.455 35.3523V34.3523H454.455V35.3523H455.455ZM487.739 35.3523V36.3523H488.739V35.3523H487.739ZM487.739 23.1818H488.739V22.1818H487.739V23.1818ZM440.693 23.1818V22.1818H439.693V23.1818H440.693ZM440.693 94H487.875V92H440.693V94ZM488.875 93V80.8295H486.875V93H488.875ZM487.875 79.8295H455.455V81.8295H487.875V79.8295ZM456.455 80.8295V64.1591H454.455V80.8295H456.455ZM455.455 65.1591H485.318V63.1591H455.455V65.1591ZM486.318 64.1591V51.9886H484.318V64.1591H486.318ZM485.318 50.9886H455.455V52.9886H485.318V50.9886ZM456.455 51.9886V35.3523H454.455V51.9886H456.455ZM455.455 36.3523H487.739V34.3523H455.455V36.3523ZM488.739 35.3523V23.1818H486.739V35.3523H488.739ZM487.739 22.1818H440.693V24.1818H487.739V22.1818ZM439.693 23.1818V93H441.693V23.1818H439.693ZM561.077 47.625V48.625H562.204L562.07 47.5054L561.077 47.625ZM561.077 69.2045L562.069 69.3283L562.208 68.2097L561.081 68.2046L561.077 69.2045ZM546.145 69.1364L546.149 68.1364L545.315 68.1326L545.162 68.9523L546.145 69.1364ZM546.145 47.625L545.155 47.7701L545.281 48.625H546.145V47.625ZM562.07 47.5054C561.069 39.2064 557.416 32.6142 551.886 28.1043C546.365 23.6012 539.039 21.2273 530.77 21.2273V23.2273C538.66 23.2273 545.516 25.4897 550.622 29.6542C555.72 33.8119 559.141 39.9186 560.084 47.7446L562.07 47.5054ZM530.77 21.2273C521.307 21.2273 512.903 24.573 506.869 30.9038C500.835 37.2332 497.247 46.4624 497.247 58.0909H499.247C499.247 46.8785 502.699 38.1759 508.316 32.2837C513.932 26.3929 521.79 23.2273 530.77 23.2273V21.2273ZM497.247 58.0909C497.247 69.6813 500.773 78.9106 506.777 85.2501C512.783 91.5923 521.188 94.9545 530.77 94.9545V92.9545C521.67 92.9545 513.813 89.7713 508.229 83.8749C502.642 77.9758 499.247 69.2733 499.247 58.0909H497.247ZM530.77 94.9545C549.18 94.9545 560.405 82.6729 562.069 69.3283L560.084 69.0808C558.544 81.4408 548.155 92.9545 530.77 92.9545V94.9545ZM561.081 68.2046L546.149 68.1364L546.14 70.1364L561.072 70.2045L561.081 68.2046ZM545.162 68.9523C544.505 72.4599 542.813 75.1758 540.398 77.0224C537.976 78.8744 534.765 79.8977 531.009 79.8977V81.8977C535.127 81.8977 538.785 80.7733 541.613 78.6112C544.448 76.4435 546.387 73.2787 547.128 69.3204L545.162 68.9523ZM531.009 79.8977C525.975 79.8977 521.824 78.0398 518.91 74.4622C515.977 70.8601 514.213 65.4089 514.213 58.0909H512.213C512.213 65.7048 514.046 71.6569 517.36 75.7253C520.693 79.8181 525.44 81.8977 531.009 81.8977V79.8977ZM514.213 58.0909C514.213 50.9802 515.95 45.5246 518.889 41.8679C521.808 38.2362 525.986 36.2841 531.111 36.2841V34.2841C525.429 34.2841 520.658 36.4741 517.33 40.615C514.022 44.731 512.213 50.6789 512.213 58.0909H514.213ZM531.111 36.2841C534.957 36.2841 538.201 37.3939 540.604 39.3532C543.002 41.3084 544.626 44.1606 545.155 47.7701L547.134 47.4799C546.539 43.4189 544.686 40.1007 541.868 37.8031C539.055 35.5095 535.344 34.2841 531.111 34.2841V36.2841ZM546.145 48.625H561.077V46.625H546.145V48.625ZM569.003 35.3523H568.003V36.3523H569.003V35.3523ZM590.378 35.3523H591.378V34.3523H590.378V35.3523ZM590.378 93H589.378V94H590.378V93ZM604.969 93V94H605.969V93H604.969ZM604.969 35.3523V34.3523H603.969V35.3523H604.969ZM626.344 35.3523V36.3523H627.344V35.3523H626.344ZM626.344 23.1818H627.344V22.1818H626.344V23.1818ZM569.003 23.1818V22.1818H568.003V23.1818H569.003ZM569.003 36.3523H590.378V34.3523H569.003V36.3523ZM589.378 35.3523V93H591.378V35.3523H589.378ZM590.378 94H604.969V92H590.378V94ZM605.969 93V35.3523H603.969V93H605.969ZM604.969 36.3523H626.344V34.3523H604.969V36.3523ZM627.344 35.3523V23.1818H625.344V35.3523H627.344ZM626.344 22.1818H569.003V24.1818H626.344V22.1818ZM568.003 23.1818V35.3523H570.003V23.1818H568.003ZM673.662 43.2614L672.667 43.3603L672.756 44.2614H673.662V43.2614ZM687.81 43.2614V44.2614H688.826L688.81 43.2449L687.81 43.2614ZM635.378 43.3636L636.378 43.3669L636.378 43.3583L635.378 43.3636ZM654.401 62.3864L654.644 61.4164L654.634 61.4139L654.401 62.3864ZM662.003 64.2955L661.759 65.2654L661.768 65.2674L662.003 64.2955ZM673.866 73.0227L674.867 73.0294L674.866 73.0155L673.866 73.0227ZM647.821 71.0795L648.819 71.0114L648.755 70.0795H647.821V71.0795ZM633.537 71.0795V70.0795H632.512L632.537 71.1044L633.537 71.0795ZM688.764 73.0568L689.764 73.0595V73.0539L688.764 73.0568ZM667.832 52.5341L667.6 53.5068L667.613 53.5098L667.832 52.5341ZM661.56 51.0341L661.792 50.0615L661.784 50.0596L661.56 51.0341ZM650.514 42.375L651.514 42.3954L651.514 42.3852V42.375H650.514ZM673.662 44.2614H687.81V42.2614H673.662V44.2614ZM688.81 43.2449C688.702 36.7321 685.963 31.1954 681.207 27.3042C676.466 23.4247 669.783 21.2273 661.832 21.2273V23.2273C669.427 23.2273 675.63 25.3253 679.941 28.852C684.236 32.3671 686.712 37.3475 686.81 43.2778L688.81 43.2449ZM661.832 21.2273C654.004 21.2273 647.142 23.3888 642.222 27.2534C637.284 31.1321 634.342 36.7021 634.378 43.369L636.378 43.3583C636.345 37.3433 638.977 32.3451 643.457 28.8262C647.955 25.293 654.354 23.2273 661.832 23.2273V21.2273ZM634.378 43.3603C634.36 48.7747 636.273 53.0896 639.765 56.4004C643.226 59.6818 648.178 61.922 654.167 63.3588L654.634 61.4139C648.828 60.0212 644.251 57.8977 641.141 54.949C638.062 52.0297 636.362 48.2481 636.378 43.3669L634.378 43.3603ZM654.157 63.3562L661.759 65.2653L662.246 63.3256L654.644 61.4165L654.157 63.3562ZM661.768 65.2674C665.554 66.1843 668.359 67.1573 670.212 68.4129C671.996 69.6226 672.852 71.0579 672.867 73.03L674.866 73.0155C674.847 70.283 673.572 68.2751 671.334 66.7575C669.163 65.2859 666.054 64.2475 662.238 63.3235L661.768 65.2674ZM672.867 73.0161C672.852 75.2189 671.817 77.0762 669.905 78.4169C667.967 79.7755 665.1 80.6136 661.491 80.6136V82.6136C665.383 82.6136 668.687 81.7132 671.053 80.0546C673.444 78.3783 674.847 75.9401 674.866 73.0294L672.867 73.0161ZM661.491 80.6136C657.797 80.6136 654.728 79.7584 652.55 78.161C650.402 76.5849 649.038 74.2284 648.819 71.0114L646.823 71.1477C647.081 74.9193 648.718 77.8299 651.367 79.7736C653.988 81.6962 657.515 82.6136 661.491 82.6136V80.6136ZM647.821 70.0795H633.537V72.0795H647.821V70.0795ZM632.537 71.1044C632.731 78.9108 635.636 84.9342 640.767 88.9825C645.868 93.0068 653.052 94.9886 661.662 94.9886V92.9886C653.328 92.9886 646.638 91.0671 642.006 87.4124C637.404 83.7817 634.718 78.3506 634.537 71.0547L632.537 71.1044ZM661.662 94.9886C670.331 94.9886 677.34 92.918 682.209 89.104C687.106 85.2684 689.746 79.7385 689.764 73.0595L687.764 73.0542C687.748 79.1592 685.36 84.0952 680.976 87.5295C676.564 90.9855 670.039 92.9886 661.662 92.9886V94.9886ZM689.764 73.0539C689.746 66.9553 687.424 62.2384 683.505 58.7151C679.618 55.2209 674.21 52.9424 668.052 51.5584L667.613 53.5098C673.591 54.8531 678.632 57.0234 682.168 60.2025C685.672 63.3525 687.748 67.5333 687.764 73.0598L689.764 73.0539ZM668.065 51.5615L661.792 50.0615L661.327 52.0067L667.6 53.5067L668.065 51.5615ZM661.784 50.0596C658.778 49.3672 656.141 48.4879 654.283 47.2314C652.472 46.0059 651.471 44.4787 651.514 42.3954L649.514 42.3546C649.455 45.2827 650.943 47.3862 653.163 48.8879C655.337 50.3587 658.273 51.3032 661.335 52.0086L661.784 50.0596ZM651.514 42.375C651.514 40.4543 652.351 38.7984 654.002 37.5914C655.68 36.3646 658.255 35.5682 661.73 35.5682V33.5682C657.977 33.5682 654.945 34.4252 652.822 35.9768C650.672 37.5482 649.514 39.7957 649.514 42.375H651.514ZM661.73 35.5682C665.118 35.5682 667.736 36.3385 669.547 37.6636C671.334 38.9711 672.42 40.8781 672.667 43.3603L674.657 43.1625C674.358 40.156 673.007 37.7164 670.728 36.0495C668.474 34.4001 665.399 33.5682 661.73 33.5682V35.5682ZM6.06818 139.182V138.182H5.06818V139.182H6.06818ZM6.06818 209H5.06818V210H6.06818V209ZM20.3864 209V210H21.3864V209H20.3864ZM20.3864 163.386V162.386H19.3864V163.386H20.3864ZM20.9659 163.386L21.8947 163.016L21.6435 162.386H20.9659V163.386ZM39.0341 208.659L38.1053 209.03L38.3565 209.659H39.0341V208.659ZM48.7841 208.659V209.659H49.4607L49.7124 209.031L48.7841 208.659ZM66.8523 163.557V162.557H66.1756L65.924 163.185L66.8523 163.557ZM67.4318 163.557H68.4318V162.557H67.4318V163.557ZM67.4318 209H66.4318V210H67.4318V209ZM81.75 209V210H82.75V209H81.75ZM81.75 139.182H82.75V138.182H81.75V139.182ZM63.5455 139.182V138.182H62.8746L62.6202 138.803L63.5455 139.182ZM44.3182 186.091V187.091H44.989L45.2435 186.47L44.3182 186.091ZM43.5 186.091L42.5747 186.47L42.8291 187.091H43.5V186.091ZM24.2727 139.182L25.198 138.803L24.9436 138.182H24.2727V139.182ZM5.06818 139.182V209H7.06818V139.182H5.06818ZM6.06818 210H20.3864V208H6.06818V210ZM21.3864 209V163.386H19.3864V209H21.3864ZM20.3864 164.386H20.9659V162.386H20.3864V164.386ZM20.0371 163.757L38.1053 209.03L39.9629 208.288L21.8947 163.016L20.0371 163.757ZM39.0341 209.659H48.7841V207.659H39.0341V209.659ZM49.7124 209.031L67.7806 163.929L65.924 163.185L47.8558 208.287L49.7124 209.031ZM66.8523 164.557H67.4318V162.557H66.8523V164.557ZM66.4318 163.557V209H68.4318V163.557H66.4318ZM67.4318 210H81.75V208H67.4318V210ZM82.75 209V139.182H80.75V209H82.75ZM81.75 138.182H63.5455V140.182H81.75V138.182ZM62.6202 138.803L43.3929 185.712L45.2435 186.47L64.4707 139.561L62.6202 138.803ZM44.3182 185.091H43.5V187.091H44.3182V185.091ZM44.4253 185.712L25.198 138.803L23.3474 139.561L42.5747 186.47L44.4253 185.712ZM24.2727 138.182H6.06818V140.182H24.2727V138.182ZM89.821 139.182V138.182H88.1086L88.9501 139.673L89.821 139.182ZM115.287 184.318H116.287V184.056L116.158 183.827L115.287 184.318ZM115.287 209H114.287V210H115.287V209ZM129.946 209V210H130.946V209H129.946ZM129.946 184.318L129.075 183.827L128.946 184.056V184.318H129.946ZM155.412 139.182L156.283 139.673L157.124 138.182H155.412V139.182ZM138.878 139.182V138.182H138.276L137.994 138.714L138.878 139.182ZM122.957 169.25V170.25H123.559L123.841 169.718L122.957 169.25ZM122.276 169.25L121.392 169.718L121.674 170.25H122.276V169.25ZM106.355 139.182L107.239 138.714L106.957 138.182H106.355V139.182ZM88.9501 139.673L114.416 184.81L116.158 183.827L90.692 138.69L88.9501 139.673ZM114.287 184.318V209H116.287V184.318H114.287ZM115.287 210H129.946V208H115.287V210ZM130.946 209V184.318H128.946V209H130.946ZM130.817 184.81L156.283 139.673L154.541 138.69L129.075 183.827L130.817 184.81ZM155.412 138.182H138.878V140.182H155.412V138.182ZM137.994 138.714L122.074 168.782L123.841 169.718L139.762 139.65L137.994 138.714ZM122.957 168.25H122.276V170.25H122.957V168.25ZM123.159 168.782L107.239 138.714L105.471 139.65L121.392 169.718L123.159 168.782ZM106.355 138.182H89.821V140.182H106.355V138.182ZM185.693 209H184.693V210H185.693V209ZM200.455 209V210H201.455V209H200.455ZM200.455 186.364V185.364H199.455V186.364H200.455ZM185.693 139.182V138.182H184.693V139.182H185.693ZM200.455 174.534H199.455V175.534H200.455V174.534ZM200.455 151.25V150.25H199.455V151.25H200.455ZM185.693 210H200.455V208H185.693V210ZM201.455 209V186.364H199.455V209H201.455ZM200.455 187.364H212.864V185.364H200.455V187.364ZM212.864 187.364C221.091 187.364 227.707 184.906 232.274 180.555C236.844 176.2 239.261 170.042 239.261 162.841H237.261C237.261 169.583 235.008 175.186 230.894 179.107C226.776 183.031 220.693 185.364 212.864 185.364V187.364ZM239.261 162.841C239.261 155.679 236.89 149.491 232.394 145.093C227.898 140.696 221.373 138.182 213.239 138.182V140.182C220.956 140.182 226.943 142.559 230.995 146.523C235.047 150.486 237.261 156.128 237.261 162.841H239.261ZM213.239 138.182H185.693V140.182H213.239V138.182ZM184.693 139.182V209H186.693V139.182H184.693ZM201.455 174.534V151.25H199.455V174.534H201.455ZM200.455 152.25H210.409V150.25H200.455V152.25ZM210.409 152.25C214.494 152.25 217.376 153.359 219.234 155.156C221.088 156.95 222.057 159.561 222.057 162.841H224.057C224.057 159.167 222.963 155.981 220.624 153.719C218.289 151.459 214.847 150.25 210.409 150.25V152.25ZM222.057 162.841C222.057 166.104 221.088 168.744 219.236 170.57C217.383 172.397 214.518 173.534 210.477 173.534V175.534C214.891 175.534 218.316 174.285 220.639 171.995C222.963 169.704 224.057 166.499 224.057 162.841H222.057ZM210.477 173.534H200.455V175.534H210.477V173.534ZM247.849 209H246.849V210H247.849V209ZM262.611 209V210H263.611V209H262.611ZM262.611 184.25V183.25H261.611V184.25H262.611ZM273.384 184.25L274.265 183.779L273.983 183.25H273.384V184.25ZM286.611 209L285.729 209.471L286.011 210H286.611V209ZM302.906 209V210H304.592L303.784 208.52L302.906 209ZM288.077 181.864L287.682 180.945L286.672 181.378L287.199 182.343L288.077 181.864ZM247.849 139.182V138.182H246.849V139.182H247.849ZM262.611 172.386H261.611V173.386H262.611V172.386ZM262.611 151.25V150.25H261.611V151.25H262.611ZM247.849 210H262.611V208H247.849V210ZM263.611 209V184.25H261.611V209H263.611ZM262.611 185.25H273.384V183.25H262.611V185.25ZM272.502 184.721L285.729 209.471L287.493 208.529L274.265 183.779L272.502 184.721ZM286.611 210H302.906V208H286.611V210ZM303.784 208.52L288.954 181.384L287.199 182.343L302.029 209.48L303.784 208.52ZM288.471 182.783C296.817 179.201 301.418 171.894 301.418 161.989H299.418C299.418 171.174 295.223 177.708 287.682 180.945L288.471 182.783ZM301.418 161.989C301.418 154.823 299.043 148.837 294.531 144.649C290.027 140.469 283.505 138.182 275.395 138.182V140.182C283.137 140.182 289.126 142.361 293.171 146.115C297.207 149.861 299.418 155.279 299.418 161.989H301.418ZM275.395 138.182H247.849V140.182H275.395V138.182ZM246.849 139.182V209H248.849V139.182H246.849ZM263.611 172.386V151.25H261.611V172.386H263.611ZM262.611 152.25H272.565V150.25H262.611V152.25ZM272.565 152.25C276.699 152.25 279.586 153.17 281.431 154.767C283.249 156.342 284.213 158.713 284.213 161.989H286.213C286.213 158.309 285.115 155.312 282.74 153.255C280.391 151.222 276.954 150.25 272.565 150.25V152.25ZM284.213 161.989C284.213 165.244 283.252 167.521 281.455 169.013C279.622 170.536 276.749 171.386 272.634 171.386V173.386C276.972 173.386 280.39 172.498 282.733 170.552C285.112 168.576 286.213 165.654 286.213 161.989H284.213ZM272.634 171.386H262.611V173.386H272.634V171.386ZM376.009 174.091C376.009 162.46 372.394 153.231 366.326 146.902C360.256 140.572 351.811 137.227 342.315 137.227V139.227C351.331 139.227 359.232 142.394 364.882 148.286C370.532 154.179 374.009 162.88 374.009 174.091H376.009ZM342.315 137.227C332.769 137.227 324.323 140.571 318.266 146.902C312.21 153.232 308.622 162.462 308.622 174.091H310.622C310.622 162.878 314.074 154.177 319.711 148.285C325.347 142.395 333.248 139.227 342.315 139.227V137.227ZM308.622 174.091C308.622 185.669 312.21 194.899 318.265 201.24C324.322 207.583 332.767 210.955 342.315 210.955V208.955C333.25 208.955 325.349 205.763 319.712 199.859C314.074 193.954 310.622 185.251 310.622 174.091H308.622ZM342.315 210.955C351.811 210.955 360.256 207.61 366.326 201.28C372.394 194.951 376.009 185.721 376.009 174.091H374.009C374.009 185.301 370.532 194.003 364.882 199.896C359.232 205.788 351.331 208.955 342.315 208.955V210.955ZM359.043 174.091C359.043 181.344 357.32 186.797 354.413 190.416C351.529 194.009 347.396 195.898 342.315 195.898V197.898C347.939 197.898 352.67 195.781 355.973 191.669C359.254 187.583 361.043 181.633 361.043 174.091H359.043ZM342.315 195.898C337.217 195.898 333.085 194.008 330.205 190.417C327.303 186.798 325.588 181.345 325.588 174.091H323.588C323.588 181.632 325.368 187.583 328.645 191.668C331.943 195.781 336.675 197.898 342.315 197.898V195.898ZM325.588 174.091C325.588 166.837 327.303 161.384 330.205 157.765C333.085 154.174 337.217 152.284 342.315 152.284V150.284C336.675 150.284 331.943 152.4 328.645 156.514C325.368 160.599 323.588 166.55 323.588 174.091H325.588ZM342.315 152.284C347.396 152.284 351.529 154.173 354.413 157.765C357.32 161.385 359.043 166.838 359.043 174.091H361.043C361.043 166.549 359.254 160.598 355.973 156.513C352.67 152.401 347.939 150.284 342.315 150.284V152.284ZM413.898 139.182V138.182H412.898V139.182H413.898ZM413.898 187.864L414.898 187.869V187.864H413.898ZM396.818 189.364L397.818 189.345L397.8 188.364H396.818V189.364ZM382.125 189.364V188.364H381.13L381.125 189.359L382.125 189.364ZM428.489 187.864L429.489 187.866V187.864H428.489ZM428.489 139.182H429.489V138.182H428.489V139.182ZM412.898 139.182V187.864H414.898V139.182H412.898ZM412.898 187.859C412.881 191.088 412.15 193.391 410.917 194.873C409.71 196.324 407.906 197.125 405.409 197.125V199.125C408.367 199.125 410.79 198.153 412.455 196.152C414.094 194.183 414.88 191.356 414.898 187.869L412.898 187.859ZM405.409 197.125C403.046 197.125 401.198 196.394 399.93 195.122C398.66 193.848 397.866 191.926 397.818 189.345L395.818 189.382C395.873 192.358 396.801 194.816 398.513 196.534C400.228 198.254 402.625 199.125 405.409 199.125V197.125ZM396.818 188.364H382.125V190.364H396.818V188.364ZM381.125 189.359C381.09 196.59 383.665 202.035 387.981 205.654C392.271 209.251 398.173 210.955 404.659 210.955V208.955C398.498 208.955 393.098 207.335 389.266 204.121C385.46 200.93 383.092 196.08 383.125 189.369L381.125 189.359ZM404.659 210.955C411.932 210.955 418.139 208.753 422.542 204.722C426.954 200.683 429.471 194.883 429.489 187.866L427.489 187.861C427.472 194.379 425.148 199.624 421.191 203.247C417.225 206.878 411.533 208.955 404.659 208.955V210.955ZM429.489 187.864V139.182H427.489V187.864H429.489ZM428.489 138.182H413.898V140.182H428.489V138.182ZM440.693 209H439.693V210H440.693V209ZM487.875 209V210H488.875V209H487.875ZM487.875 196.83H488.875V195.83H487.875V196.83ZM455.455 196.83H454.455V197.83H455.455V196.83ZM455.455 180.159V179.159H454.455V180.159H455.455ZM485.318 180.159V181.159H486.318V180.159H485.318ZM485.318 167.989H486.318V166.989H485.318V167.989ZM455.455 167.989H454.455V168.989H455.455V167.989ZM455.455 151.352V150.352H454.455V151.352H455.455ZM487.739 151.352V152.352H488.739V151.352H487.739ZM487.739 139.182H488.739V138.182H487.739V139.182ZM440.693 139.182V138.182H439.693V139.182H440.693ZM440.693 210H487.875V208H440.693V210ZM488.875 209V196.83H486.875V209H488.875ZM487.875 195.83H455.455V197.83H487.875V195.83ZM456.455 196.83V180.159H454.455V196.83H456.455ZM455.455 181.159H485.318V179.159H455.455V181.159ZM486.318 180.159V167.989H484.318V180.159H486.318ZM485.318 166.989H455.455V168.989H485.318V166.989ZM456.455 167.989V151.352H454.455V167.989H456.455ZM455.455 152.352H487.739V150.352H455.455V152.352ZM488.739 151.352V139.182H486.739V151.352H488.739ZM487.739 138.182H440.693V140.182H487.739V138.182ZM439.693 139.182V209H441.693V139.182H439.693ZM561.077 163.625V164.625H562.204L562.07 163.505L561.077 163.625ZM561.077 185.205L562.069 185.328L562.208 184.21L561.081 184.205L561.077 185.205ZM546.145 185.136L546.149 184.136L545.315 184.133L545.162 184.952L546.145 185.136ZM546.145 163.625L545.155 163.77L545.281 164.625H546.145V163.625ZM562.07 163.505C561.069 155.206 557.416 148.614 551.886 144.104C546.365 139.601 539.039 137.227 530.77 137.227V139.227C538.66 139.227 545.516 141.49 550.622 145.654C555.72 149.812 559.141 155.919 560.084 163.745L562.07 163.505ZM530.77 137.227C521.307 137.227 512.903 140.573 506.869 146.904C500.835 153.233 497.247 162.462 497.247 174.091H499.247C499.247 162.878 502.699 154.176 508.316 148.284C513.932 142.393 521.79 139.227 530.77 139.227V137.227ZM497.247 174.091C497.247 185.681 500.773 194.911 506.777 201.25C512.783 207.592 521.188 210.955 530.77 210.955V208.955C521.67 208.955 513.813 205.771 508.229 199.875C502.642 193.976 499.247 185.273 499.247 174.091H497.247ZM530.77 210.955C549.18 210.955 560.405 198.673 562.069 185.328L560.084 185.081C558.544 197.441 548.155 208.955 530.77 208.955V210.955ZM561.081 184.205L546.149 184.136L546.14 186.136L561.072 186.205L561.081 184.205ZM545.162 184.952C544.505 188.46 542.813 191.176 540.398 193.022C537.976 194.874 534.765 195.898 531.009 195.898V197.898C535.127 197.898 538.785 196.773 541.613 194.611C544.448 192.444 546.387 189.279 547.128 185.32L545.162 184.952ZM531.009 195.898C525.975 195.898 521.824 194.04 518.91 190.462C515.977 186.86 514.213 181.409 514.213 174.091H512.213C512.213 181.705 514.046 187.657 517.36 191.725C520.693 195.818 525.44 197.898 531.009 197.898V195.898ZM514.213 174.091C514.213 166.98 515.95 161.525 518.889 157.868C521.808 154.236 525.986 152.284 531.111 152.284V150.284C525.429 150.284 520.658 152.474 517.33 156.615C514.022 160.731 512.213 166.679 512.213 174.091H514.213ZM531.111 152.284C534.957 152.284 538.201 153.394 540.604 155.353C543.002 157.308 544.626 160.161 545.155 163.77L547.134 163.48C546.539 159.419 544.686 156.101 541.868 153.803C539.055 151.51 535.344 150.284 531.111 150.284V152.284ZM546.145 164.625H561.077V162.625H546.145V164.625ZM569.003 151.352H568.003V152.352H569.003V151.352ZM590.378 151.352H591.378V150.352H590.378V151.352ZM590.378 209H589.378V210H590.378V209ZM604.969 209V210H605.969V209H604.969ZM604.969 151.352V150.352H603.969V151.352H604.969ZM626.344 151.352V152.352H627.344V151.352H626.344ZM626.344 139.182H627.344V138.182H626.344V139.182ZM569.003 139.182V138.182H568.003V139.182H569.003ZM569.003 152.352H590.378V150.352H569.003V152.352ZM589.378 151.352V209H591.378V151.352H589.378ZM590.378 210H604.969V208H590.378V210ZM605.969 209V151.352H603.969V209H605.969ZM604.969 152.352H626.344V150.352H604.969V152.352ZM627.344 151.352V139.182H625.344V151.352H627.344ZM626.344 138.182H569.003V140.182H626.344V138.182ZM568.003 139.182V151.352H570.003V139.182H568.003ZM673.662 159.261L672.667 159.36L672.756 160.261H673.662V159.261ZM687.81 159.261V160.261H688.826L688.81 159.245L687.81 159.261ZM635.378 159.364L636.378 159.367L636.378 159.358L635.378 159.364ZM654.401 178.386L654.644 177.416L654.634 177.414L654.401 178.386ZM662.003 180.295L661.759 181.265L661.768 181.267L662.003 180.295ZM673.866 189.023L674.867 189.029L674.866 189.015L673.866 189.023ZM647.821 187.08L648.819 187.011L648.755 186.08H647.821V187.08ZM633.537 187.08V186.08H632.512L632.537 187.104L633.537 187.08ZM688.764 189.057L689.764 189.059V189.054L688.764 189.057ZM667.832 168.534L667.6 169.507L667.613 169.51L667.832 168.534ZM661.56 167.034L661.792 166.061L661.784 166.06L661.56 167.034ZM650.514 158.375L651.514 158.395L651.514 158.385V158.375H650.514ZM673.662 160.261H687.81V158.261H673.662V160.261ZM688.81 159.245C688.702 152.732 685.963 147.195 681.207 143.304C676.466 139.425 669.783 137.227 661.832 137.227V139.227C669.427 139.227 675.63 141.325 679.941 144.852C684.236 148.367 686.712 153.347 686.81 159.278L688.81 159.245ZM661.832 137.227C654.004 137.227 647.142 139.389 642.222 143.253C637.284 147.132 634.342 152.702 634.378 159.369L636.378 159.358C636.345 153.343 638.977 148.345 643.457 144.826C647.955 141.293 654.354 139.227 661.832 139.227V137.227ZM634.378 159.36C634.36 164.775 636.273 169.09 639.765 172.4C643.226 175.682 648.178 177.922 654.167 179.359L654.634 177.414C648.828 176.021 644.251 173.898 641.141 170.949C638.062 168.03 636.362 164.248 636.378 159.367L634.378 159.36ZM654.157 179.356L661.759 181.265L662.246 179.326L654.644 177.416L654.157 179.356ZM661.768 181.267C665.554 182.184 668.359 183.157 670.212 184.413C671.996 185.623 672.852 187.058 672.867 189.03L674.866 189.015C674.847 186.283 673.572 184.275 671.334 182.758C669.163 181.286 666.054 180.247 662.238 179.324L661.768 181.267ZM672.867 189.016C672.852 191.219 671.817 193.076 669.905 194.417C667.967 195.775 665.1 196.614 661.491 196.614V198.614C665.383 198.614 668.687 197.713 671.053 196.055C673.444 194.378 674.847 191.94 674.866 189.029L672.867 189.016ZM661.491 196.614C657.797 196.614 654.728 195.758 652.55 194.161C650.402 192.585 649.038 190.228 648.819 187.011L646.823 187.148C647.081 190.919 648.718 193.83 651.367 195.774C653.988 197.696 657.515 198.614 661.491 198.614V196.614ZM647.821 186.08H633.537V188.08H647.821V186.08ZM632.537 187.104C632.731 194.911 635.636 200.934 640.767 204.983C645.868 209.007 653.052 210.989 661.662 210.989V208.989C653.328 208.989 646.638 207.067 642.006 203.412C637.404 199.782 634.718 194.351 634.537 187.055L632.537 187.104ZM661.662 210.989C670.331 210.989 677.34 208.918 682.209 205.104C687.106 201.268 689.746 195.739 689.764 189.059L687.764 189.054C687.748 195.159 685.36 200.095 680.976 203.53C676.564 206.985 670.039 208.989 661.662 208.989V210.989ZM689.764 189.054C689.746 182.955 687.424 178.238 683.505 174.715C679.618 171.221 674.21 168.942 668.052 167.558L667.613 169.51C673.591 170.853 678.632 173.023 682.168 176.202C685.672 179.352 687.748 183.533 687.764 189.06L689.764 189.054ZM668.065 167.562L661.792 166.062L661.327 168.007L667.6 169.507L668.065 167.562ZM661.784 166.06C658.778 165.367 656.141 164.488 654.283 163.231C652.472 162.006 651.471 160.479 651.514 158.395L649.514 158.355C649.455 161.283 650.943 163.386 653.163 164.888C655.337 166.359 658.273 167.303 661.335 168.009L661.784 166.06ZM651.514 158.375C651.514 156.454 652.351 154.798 654.002 153.591C655.68 152.365 658.255 151.568 661.73 151.568V149.568C657.977 149.568 654.945 150.425 652.822 151.977C650.672 153.548 649.514 155.796 649.514 158.375H651.514ZM661.73 151.568C665.118 151.568 667.736 152.339 669.547 153.664C671.334 154.971 672.42 156.878 672.667 159.36L674.657 159.162C674.358 156.156 673.007 153.716 670.728 152.049C668.474 150.4 665.399 149.568 661.73 149.568V151.568ZM6.06818 255.182V254.182H5.06818V255.182H6.06818ZM6.06818 325H5.06818V326H6.06818V325ZM20.3864 325V326H21.3864V325H20.3864ZM20.3864 279.386V278.386H19.3864V279.386H20.3864ZM20.9659 279.386L21.8947 279.016L21.6435 278.386H20.9659V279.386ZM39.0341 324.659L38.1053 325.03L38.3565 325.659H39.0341V324.659ZM48.7841 324.659V325.659H49.4607L49.7124 325.031L48.7841 324.659ZM66.8523 279.557V278.557H66.1756L65.924 279.185L66.8523 279.557ZM67.4318 279.557H68.4318V278.557H67.4318V279.557ZM67.4318 325H66.4318V326H67.4318V325ZM81.75 325V326H82.75V325H81.75ZM81.75 255.182H82.75V254.182H81.75V255.182ZM63.5455 255.182V254.182H62.8746L62.6202 254.803L63.5455 255.182ZM44.3182 302.091V303.091H44.989L45.2435 302.47L44.3182 302.091ZM43.5 302.091L42.5747 302.47L42.8291 303.091H43.5V302.091ZM24.2727 255.182L25.198 254.803L24.9436 254.182H24.2727V255.182ZM5.06818 255.182V325H7.06818V255.182H5.06818ZM6.06818 326H20.3864V324H6.06818V326ZM21.3864 325V279.386H19.3864V325H21.3864ZM20.3864 280.386H20.9659V278.386H20.3864V280.386ZM20.0371 279.757L38.1053 325.03L39.9629 324.288L21.8947 279.016L20.0371 279.757ZM39.0341 325.659H48.7841V323.659H39.0341V325.659ZM49.7124 325.031L67.7806 279.929L65.924 279.185L47.8558 324.287L49.7124 325.031ZM66.8523 280.557H67.4318V278.557H66.8523V280.557ZM66.4318 279.557V325H68.4318V279.557H66.4318ZM67.4318 326H81.75V324H67.4318V326ZM82.75 325V255.182H80.75V325H82.75ZM81.75 254.182H63.5455V256.182H81.75V254.182ZM62.6202 254.803L43.3929 301.712L45.2435 302.47L64.4707 255.561L62.6202 254.803ZM44.3182 301.091H43.5V303.091H44.3182V301.091ZM44.4253 301.712L25.198 254.803L23.3474 255.561L42.5747 302.47L44.4253 301.712ZM24.2727 254.182H6.06818V256.182H24.2727V254.182ZM89.821 255.182V254.182H88.1086L88.9501 255.673L89.821 255.182ZM115.287 300.318H116.287V300.056L116.158 299.827L115.287 300.318ZM115.287 325H114.287V326H115.287V325ZM129.946 325V326H130.946V325H129.946ZM129.946 300.318L129.075 299.827L128.946 300.056V300.318H129.946ZM155.412 255.182L156.283 255.673L157.124 254.182H155.412V255.182ZM138.878 255.182V254.182H138.276L137.994 254.714L138.878 255.182ZM122.957 285.25V286.25H123.559L123.841 285.718L122.957 285.25ZM122.276 285.25L121.392 285.718L121.674 286.25H122.276V285.25ZM106.355 255.182L107.239 254.714L106.957 254.182H106.355V255.182ZM88.9501 255.673L114.416 300.81L116.158 299.827L90.692 254.69L88.9501 255.673ZM114.287 300.318V325H116.287V300.318H114.287ZM115.287 326H129.946V324H115.287V326ZM130.946 325V300.318H128.946V325H130.946ZM130.817 300.81L156.283 255.673L154.541 254.69L129.075 299.827L130.817 300.81ZM155.412 254.182H138.878V256.182H155.412V254.182ZM137.994 254.714L122.074 284.782L123.841 285.718L139.762 255.65L137.994 254.714ZM122.957 284.25H122.276V286.25H122.957V284.25ZM123.159 284.782L107.239 254.714L105.471 255.65L121.392 285.718L123.159 284.782ZM106.355 254.182H89.821V256.182H106.355V254.182ZM185.693 325H184.693V326H185.693V325ZM200.455 325V326H201.455V325H200.455ZM200.455 302.364V301.364H199.455V302.364H200.455ZM185.693 255.182V254.182H184.693V255.182H185.693ZM200.455 290.534H199.455V291.534H200.455V290.534ZM200.455 267.25V266.25H199.455V267.25H200.455ZM185.693 326H200.455V324H185.693V326ZM201.455 325V302.364H199.455V325H201.455ZM200.455 303.364H212.864V301.364H200.455V303.364ZM212.864 303.364C221.091 303.364 227.707 300.906 232.274 296.555C236.844 292.2 239.261 286.042 239.261 278.841H237.261C237.261 285.583 235.008 291.186 230.894 295.107C226.776 299.031 220.693 301.364 212.864 301.364V303.364ZM239.261 278.841C239.261 271.679 236.89 265.491 232.394 261.093C227.898 256.696 221.373 254.182 213.239 254.182V256.182C220.956 256.182 226.943 258.56 230.995 262.523C235.047 266.486 237.261 272.128 237.261 278.841H239.261ZM213.239 254.182H185.693V256.182H213.239V254.182ZM184.693 255.182V325H186.693V255.182H184.693ZM201.455 290.534V267.25H199.455V290.534H201.455ZM200.455 268.25H210.409V266.25H200.455V268.25ZM210.409 268.25C214.494 268.25 217.376 269.359 219.234 271.156C221.088 272.95 222.057 275.561 222.057 278.841H224.057C224.057 275.167 222.963 271.981 220.624 269.719C218.289 267.459 214.847 266.25 210.409 266.25V268.25ZM222.057 278.841C222.057 282.104 221.088 284.744 219.236 286.57C217.383 288.397 214.518 289.534 210.477 289.534V291.534C214.891 291.534 218.316 290.285 220.639 287.995C222.963 285.704 224.057 282.499 224.057 278.841H222.057ZM210.477 289.534H200.455V291.534H210.477V289.534ZM247.849 325H246.849V326H247.849V325ZM262.611 325V326H263.611V325H262.611ZM262.611 300.25V299.25H261.611V300.25H262.611ZM273.384 300.25L274.265 299.779L273.983 299.25H273.384V300.25ZM286.611 325L285.729 325.471L286.011 326H286.611V325ZM302.906 325V326H304.592L303.784 324.52L302.906 325ZM288.077 297.864L287.682 296.945L286.672 297.378L287.199 298.343L288.077 297.864ZM247.849 255.182V254.182H246.849V255.182H247.849ZM262.611 288.386H261.611V289.386H262.611V288.386ZM262.611 267.25V266.25H261.611V267.25H262.611ZM247.849 326H262.611V324H247.849V326ZM263.611 325V300.25H261.611V325H263.611ZM262.611 301.25H273.384V299.25H262.611V301.25ZM272.502 300.721L285.729 325.471L287.493 324.529L274.265 299.779L272.502 300.721ZM286.611 326H302.906V324H286.611V326ZM303.784 324.52L288.954 297.384L287.199 298.343L302.029 325.48L303.784 324.52ZM288.471 298.783C296.817 295.201 301.418 287.894 301.418 277.989H299.418C299.418 287.174 295.223 293.708 287.682 296.945L288.471 298.783ZM301.418 277.989C301.418 270.823 299.043 264.837 294.531 260.649C290.027 256.469 283.505 254.182 275.395 254.182V256.182C283.137 256.182 289.126 258.361 293.171 262.115C297.207 265.861 299.418 271.279 299.418 277.989H301.418ZM275.395 254.182H247.849V256.182H275.395V254.182ZM246.849 255.182V325H248.849V255.182H246.849ZM263.611 288.386V267.25H261.611V288.386H263.611ZM262.611 268.25H272.565V266.25H262.611V268.25ZM272.565 268.25C276.699 268.25 279.586 269.17 281.431 270.767C283.249 272.342 284.213 274.713 284.213 277.989H286.213C286.213 274.309 285.115 271.312 282.74 269.255C280.391 267.222 276.954 266.25 272.565 266.25V268.25ZM284.213 277.989C284.213 281.244 283.252 283.521 281.455 285.013C279.622 286.536 276.749 287.386 272.634 287.386V289.386C276.972 289.386 280.39 288.498 282.733 286.552C285.112 284.576 286.213 281.654 286.213 277.989H284.213ZM272.634 287.386H262.611V289.386H272.634V287.386ZM376.009 290.091C376.009 278.46 372.394 269.231 366.326 262.902C360.256 256.572 351.811 253.227 342.315 253.227V255.227C351.331 255.227 359.232 258.394 364.882 264.286C370.532 270.179 374.009 278.88 374.009 290.091H376.009ZM342.315 253.227C332.769 253.227 324.323 256.571 318.266 262.902C312.21 269.232 308.622 278.462 308.622 290.091H310.622C310.622 278.879 314.074 270.177 319.711 264.285C325.347 258.395 333.248 255.227 342.315 255.227V253.227ZM308.622 290.091C308.622 301.669 312.21 310.899 318.265 317.24C324.322 323.583 332.767 326.955 342.315 326.955V324.955C333.25 324.955 325.349 321.763 319.712 315.859C314.074 309.954 310.622 301.251 310.622 290.091H308.622ZM342.315 326.955C351.811 326.955 360.256 323.61 366.326 317.28C372.394 310.951 376.009 301.721 376.009 290.091H374.009C374.009 301.301 370.532 310.003 364.882 315.896C359.232 321.788 351.331 324.955 342.315 324.955V326.955ZM359.043 290.091C359.043 297.344 357.32 302.797 354.413 306.416C351.529 310.009 347.396 311.898 342.315 311.898V313.898C347.939 313.898 352.67 311.781 355.973 307.669C359.254 303.583 361.043 297.633 361.043 290.091H359.043ZM342.315 311.898C337.217 311.898 333.085 310.008 330.205 306.417C327.303 302.798 325.588 297.345 325.588 290.091H323.588C323.588 297.632 325.368 303.583 328.645 307.668C331.943 311.781 336.675 313.898 342.315 313.898V311.898ZM325.588 290.091C325.588 282.837 327.303 277.384 330.205 273.765C333.085 270.174 337.217 268.284 342.315 268.284V266.284C336.675 266.284 331.943 268.4 328.645 272.514C325.368 276.599 323.588 282.55 323.588 290.091H325.588ZM342.315 268.284C347.396 268.284 351.529 270.173 354.413 273.765C357.32 277.385 359.043 282.838 359.043 290.091H361.043C361.043 282.549 359.254 276.598 355.973 272.513C352.67 268.401 347.939 266.284 342.315 266.284V268.284ZM413.898 255.182V254.182H412.898V255.182H413.898ZM413.898 303.864L414.898 303.869V303.864H413.898ZM396.818 305.364L397.818 305.345L397.8 304.364H396.818V305.364ZM382.125 305.364V304.364H381.13L381.125 305.359L382.125 305.364ZM428.489 303.864L429.489 303.866V303.864H428.489ZM428.489 255.182H429.489V254.182H428.489V255.182ZM412.898 255.182V303.864H414.898V255.182H412.898ZM412.898 303.859C412.881 307.088 412.15 309.391 410.917 310.873C409.71 312.324 407.906 313.125 405.409 313.125V315.125C408.367 315.125 410.79 314.153 412.455 312.152C414.094 310.183 414.88 307.356 414.898 303.869L412.898 303.859ZM405.409 313.125C403.046 313.125 401.198 312.394 399.93 311.122C398.66 309.848 397.866 307.926 397.818 305.345L395.818 305.382C395.873 308.358 396.801 310.816 398.513 312.534C400.228 314.254 402.625 315.125 405.409 315.125V313.125ZM396.818 304.364H382.125V306.364H396.818V304.364ZM381.125 305.359C381.09 312.59 383.665 318.035 387.981 321.654C392.271 325.251 398.173 326.955 404.659 326.955V324.955C398.498 324.955 393.098 323.335 389.266 320.121C385.46 316.93 383.092 312.08 383.125 305.369L381.125 305.359ZM404.659 326.955C411.932 326.955 418.139 324.753 422.542 320.722C426.954 316.683 429.471 310.883 429.489 303.866L427.489 303.861C427.472 310.379 425.148 315.624 421.191 319.247C417.225 322.878 411.533 324.955 404.659 324.955V326.955ZM429.489 303.864V255.182H427.489V303.864H429.489ZM428.489 254.182H413.898V256.182H428.489V254.182ZM440.693 325H439.693V326H440.693V325ZM487.875 325V326H488.875V325H487.875ZM487.875 312.83H488.875V311.83H487.875V312.83ZM455.455 312.83H454.455V313.83H455.455V312.83ZM455.455 296.159V295.159H454.455V296.159H455.455ZM485.318 296.159V297.159H486.318V296.159H485.318ZM485.318 283.989H486.318V282.989H485.318V283.989ZM455.455 283.989H454.455V284.989H455.455V283.989ZM455.455 267.352V266.352H454.455V267.352H455.455ZM487.739 267.352V268.352H488.739V267.352H487.739ZM487.739 255.182H488.739V254.182H487.739V255.182ZM440.693 255.182V254.182H439.693V255.182H440.693ZM440.693 326H487.875V324H440.693V326ZM488.875 325V312.83H486.875V325H488.875ZM487.875 311.83H455.455V313.83H487.875V311.83ZM456.455 312.83V296.159H454.455V312.83H456.455ZM455.455 297.159H485.318V295.159H455.455V297.159ZM486.318 296.159V283.989H484.318V296.159H486.318ZM485.318 282.989H455.455V284.989H485.318V282.989ZM456.455 283.989V267.352H454.455V283.989H456.455ZM455.455 268.352H487.739V266.352H455.455V268.352ZM488.739 267.352V255.182H486.739V267.352H488.739ZM487.739 254.182H440.693V256.182H487.739V254.182ZM439.693 255.182V325H441.693V255.182H439.693ZM561.077 279.625V280.625H562.204L562.07 279.505L561.077 279.625ZM561.077 301.205L562.069 301.328L562.208 300.21L561.081 300.205L561.077 301.205ZM546.145 301.136L546.149 300.136L545.315 300.133L545.162 300.952L546.145 301.136ZM546.145 279.625L545.155 279.77L545.281 280.625H546.145V279.625ZM562.07 279.505C561.069 271.206 557.416 264.614 551.886 260.104C546.365 255.601 539.039 253.227 530.77 253.227V255.227C538.66 255.227 545.516 257.49 550.622 261.654C555.72 265.812 559.141 271.919 560.084 279.745L562.07 279.505ZM530.77 253.227C521.307 253.227 512.903 256.573 506.869 262.904C500.835 269.233 497.247 278.462 497.247 290.091H499.247C499.247 278.878 502.699 270.176 508.316 264.284C513.932 258.393 521.79 255.227 530.77 255.227V253.227ZM497.247 290.091C497.247 301.681 500.773 310.911 506.777 317.25C512.783 323.592 521.188 326.955 530.77 326.955V324.955C521.67 324.955 513.813 321.771 508.229 315.875C502.642 309.976 499.247 301.273 499.247 290.091H497.247ZM530.77 326.955C549.18 326.955 560.405 314.673 562.069 301.328L560.084 301.081C558.544 313.441 548.155 324.955 530.77 324.955V326.955ZM561.081 300.205L546.149 300.136L546.14 302.136L561.072 302.205L561.081 300.205ZM545.162 300.952C544.505 304.46 542.813 307.176 540.398 309.022C537.976 310.874 534.765 311.898 531.009 311.898V313.898C535.127 313.898 538.785 312.773 541.613 310.611C544.448 308.444 546.387 305.279 547.128 301.32L545.162 300.952ZM531.009 311.898C525.975 311.898 521.824 310.04 518.91 306.462C515.977 302.86 514.213 297.409 514.213 290.091H512.213C512.213 297.705 514.046 303.657 517.36 307.725C520.693 311.818 525.44 313.898 531.009 313.898V311.898ZM514.213 290.091C514.213 282.98 515.95 277.525 518.889 273.868C521.808 270.236 525.986 268.284 531.111 268.284V266.284C525.429 266.284 520.658 268.474 517.33 272.615C514.022 276.731 512.213 282.679 512.213 290.091H514.213ZM531.111 268.284C534.957 268.284 538.201 269.394 540.604 271.353C543.002 273.308 544.626 276.161 545.155 279.77L547.134 279.48C546.539 275.419 544.686 272.101 541.868 269.803C539.055 267.51 535.344 266.284 531.111 266.284V268.284ZM546.145 280.625H561.077V278.625H546.145V280.625ZM569.003 267.352H568.003V268.352H569.003V267.352ZM590.378 267.352H591.378V266.352H590.378V267.352ZM590.378 325H589.378V326H590.378V325ZM604.969 325V326H605.969V325H604.969ZM604.969 267.352V266.352H603.969V267.352H604.969ZM626.344 267.352V268.352H627.344V267.352H626.344ZM626.344 255.182H627.344V254.182H626.344V255.182ZM569.003 255.182V254.182H568.003V255.182H569.003ZM569.003 268.352H590.378V266.352H569.003V268.352ZM589.378 267.352V325H591.378V267.352H589.378ZM590.378 326H604.969V324H590.378V326ZM605.969 325V267.352H603.969V325H605.969ZM604.969 268.352H626.344V266.352H604.969V268.352ZM627.344 267.352V255.182H625.344V267.352H627.344ZM626.344 254.182H569.003V256.182H626.344V254.182ZM568.003 255.182V267.352H570.003V255.182H568.003ZM673.662 275.261L672.667 275.36L672.756 276.261H673.662V275.261ZM687.81 275.261V276.261H688.826L688.81 275.245L687.81 275.261ZM635.378 275.364L636.378 275.367L636.378 275.358L635.378 275.364ZM654.401 294.386L654.644 293.416L654.634 293.414L654.401 294.386ZM662.003 296.295L661.759 297.265L661.768 297.267L662.003 296.295ZM673.866 305.023L674.867 305.029L674.866 305.015L673.866 305.023ZM647.821 303.08L648.819 303.011L648.755 302.08H647.821V303.08ZM633.537 303.08V302.08H632.512L632.537 303.104L633.537 303.08ZM688.764 305.057L689.764 305.059V305.054L688.764 305.057ZM667.832 284.534L667.6 285.507L667.613 285.51L667.832 284.534ZM661.56 283.034L661.792 282.061L661.784 282.06L661.56 283.034ZM650.514 274.375L651.514 274.395L651.514 274.385V274.375H650.514ZM673.662 276.261H687.81V274.261H673.662V276.261ZM688.81 275.245C688.702 268.732 685.963 263.195 681.207 259.304C676.466 255.425 669.783 253.227 661.832 253.227V255.227C669.427 255.227 675.63 257.325 679.941 260.852C684.236 264.367 686.712 269.347 686.81 275.278L688.81 275.245ZM661.832 253.227C654.004 253.227 647.142 255.389 642.222 259.253C637.284 263.132 634.342 268.702 634.378 275.369L636.378 275.358C636.345 269.343 638.977 264.345 643.457 260.826C647.955 257.293 654.354 255.227 661.832 255.227V253.227ZM634.378 275.36C634.36 280.775 636.273 285.09 639.765 288.4C643.226 291.682 648.178 293.922 654.167 295.359L654.634 293.414C648.828 292.021 644.251 289.898 641.141 286.949C638.062 284.03 636.362 280.248 636.378 275.367L634.378 275.36ZM654.157 295.356L661.759 297.265L662.246 295.326L654.644 293.416L654.157 295.356ZM661.768 297.267C665.554 298.184 668.359 299.157 670.212 300.413C671.996 301.623 672.852 303.058 672.867 305.03L674.866 305.015C674.847 302.283 673.572 300.275 671.334 298.758C669.163 297.286 666.054 296.247 662.238 295.324L661.768 297.267ZM672.867 305.016C672.852 307.219 671.817 309.076 669.905 310.417C667.967 311.775 665.1 312.614 661.491 312.614V314.614C665.383 314.614 668.687 313.713 671.053 312.055C673.444 310.378 674.847 307.94 674.866 305.029L672.867 305.016ZM661.491 312.614C657.797 312.614 654.728 311.758 652.55 310.161C650.402 308.585 649.038 306.228 648.819 303.011L646.823 303.148C647.081 306.919 648.718 309.83 651.367 311.774C653.988 313.696 657.515 314.614 661.491 314.614V312.614ZM647.821 302.08H633.537V304.08H647.821V302.08ZM632.537 303.104C632.731 310.911 635.636 316.934 640.767 320.983C645.868 325.007 653.052 326.989 661.662 326.989V324.989C653.328 324.989 646.638 323.067 642.006 319.412C637.404 315.782 634.718 310.351 634.537 303.055L632.537 303.104ZM661.662 326.989C670.331 326.989 677.34 324.918 682.209 321.104C687.106 317.268 689.746 311.739 689.764 305.059L687.764 305.054C687.748 311.159 685.36 316.095 680.976 319.53C676.564 322.985 670.039 324.989 661.662 324.989V326.989ZM689.764 305.054C689.746 298.955 687.424 294.238 683.505 290.715C679.618 287.221 674.21 284.942 668.052 283.558L667.613 285.51C673.591 286.853 678.632 289.023 682.168 292.202C685.672 295.352 687.748 299.533 687.764 305.06L689.764 305.054ZM668.065 283.562L661.792 282.062L661.327 284.007L667.6 285.507L668.065 283.562ZM661.784 282.06C658.778 281.367 656.141 280.488 654.283 279.231C652.472 278.006 651.471 276.479 651.514 274.395L649.514 274.355C649.455 277.283 650.943 279.386 653.163 280.888C655.337 282.359 658.273 283.303 661.335 284.009L661.784 282.06ZM651.514 274.375C651.514 272.454 652.351 270.798 654.002 269.591C655.68 268.365 658.255 267.568 661.73 267.568V265.568C657.977 265.568 654.945 266.425 652.822 267.977C650.672 269.548 649.514 271.796 649.514 274.375H651.514ZM661.73 267.568C665.118 267.568 667.736 268.339 669.547 269.664C671.334 270.971 672.42 272.878 672.667 275.36L674.657 275.162C674.358 272.156 673.007 269.716 670.728 268.049C668.474 266.4 665.399 265.568 661.73 265.568V267.568Z" fill="#111111"/>
</svg>
